# Blender 4.0.2
# www.blender.org
mtllib deluxocoltest6mod.mtl
o deluxotoblender1
v -209.917084 -35.010380 -531.847900
v -194.251129 -84.907906 -673.938538
v -206.752548 -86.063332 -557.452209
v -191.818619 -45.207226 -670.582581
v -202.178879 -123.752708 -558.050659
v -177.982544 -123.752708 -648.409851
v -205.140015 -101.203506 -396.812256
v -198.811279 -123.752686 -329.167633
v -202.788696 -100.928848 -329.167633
v -202.178879 -123.752693 -396.857178
v -209.930573 -34.624092 -423.795380
v -203.798294 -28.698563 -341.692657
v -206.014130 -22.686586 -30.646114
v -205.173752 -101.203476 -7.558602
v -212.552673 -15.208611 22.016272
v -202.788696 -100.928825 -45.163963
v -198.811279 -123.752663 -45.163963
v -201.562195 -123.752663 -7.558600
v -211.868378 -15.208603 140.046265
v -196.873444 -114.639015 266.871521
v -196.873444 -19.025293 275.786804
v -199.231461 -118.733788 172.858154
v -184.954773 12.724396 -478.000549
v -0.021901 23.751774 -368.660797
v -0.021901 12.724395 -488.279907
v -185.598511 23.751776 -343.970001
v -182.305405 23.751802 11.633774
v -125.259621 90.605621 -29.267897
v -185.598511 23.751801 -29.267891
v -125.259621 89.352570 7.783134
v -149.605225 45.214203 180.049530
v -178.659927 27.156776 20.757954
v -168.225159 26.250366 179.554382
v -135.145569 77.942581 20.593124
v -29.598408 94.530525 -29.267897
v -0.021901 94.490860 7.783134
v -125.259621 90.605606 -213.249863
v -0.021901 93.544754 -222.074387
v -148.629547 37.545040 261.777710
v -0.021901 23.751822 261.777710
v -0.021901 39.852154 261.777710
v -164.735611 23.751822 261.777710
v -0.021901 -19.025293 275.786804
v -173.449432 -10.211352 -648.545105
v -0.021901 -45.207230 -682.867615
v -0.021901 -10.211353 -655.495728
v -0.021901 -84.907906 -687.707031
v -0.021901 -123.752716 -657.428284
v -177.426849 23.751808 81.031738
v -212.871109 5.250138 81.031738
v -0.021901 -114.639015 266.871521
v -0.021901 -118.733788 172.858154
v -0.021901 -123.752686 -329.167633
v -0.021901 -123.752693 -401.546692
v -0.021901 -123.752663 -2.659422
v -0.021901 -123.752663 -45.163963
v -0.021901 -123.752701 -554.440063
v -30.411539 93.078911 -194.102524
v -125.259621 90.605606 -195.585754
v -210.208191 -14.219454 -477.986786
v 209.879852 -35.010380 -531.847900
v 194.214188 -84.907906 -673.938538
v 191.781647 -45.207226 -670.582581
v 206.715591 -86.063332 -557.452209
v 202.141922 -123.752708 -558.050659
v 177.945374 -123.752708 -648.409851
v 205.102859 -101.203506 -396.812256
v 198.774338 -123.752686 -329.167633
v 202.141922 -123.752693 -396.857178
v 202.751740 -100.928848 -329.167633
v 209.893387 -34.624092 -423.795380
v 203.761322 -28.698563 -341.692657
v 205.976974 -22.686586 -30.646114
v 205.136795 -101.203476 -7.558602
v 202.751740 -100.928825 -45.163963
v 212.515732 -15.208611 22.016272
v 198.774338 -123.752663 -45.163963
v 201.525238 -123.752663 -7.558600
v 211.831451 -15.208603 140.046265
v 196.836517 -114.639015 266.871521
v 199.194290 -118.733788 172.858154
v 196.836517 -19.025293 275.786804
v 184.917603 12.724396 -478.000549
v 185.561310 23.751776 -343.970001
v 182.268448 23.751802 11.633774
v 125.222656 90.605621 -29.267897
v 125.222656 89.352570 7.783134
v 185.561310 23.751801 -29.267891
v 167.903473 26.481438 180.304016
v 134.600388 78.534737 19.933826
v 149.127884 45.676598 180.063293
v 178.257111 27.517836 22.885359
v 29.561478 94.530525 -29.267897
v 125.222656 90.605606 -213.249863
v 148.592590 37.545040 261.777710
v 164.698654 23.751822 261.777710
v 173.412247 -10.211352 -648.545105
v 177.389877 23.751808 81.031738
v 212.834167 5.250138 81.031738
v 30.374613 93.078911 -194.102524
v 125.222656 90.605606 -195.585754
v 210.171234 -14.219454 -477.986786
v -157.233109 38.559914 323.151184
v -157.273911 70.126961 261.445312
v -157.233109 57.551022 256.195526
v -157.273911 82.295509 328.111908
v -0.015329 63.116398 310.104797
v -156.014893 62.421093 269.709564
v -0.015329 62.421093 269.709564
v -156.014893 63.116398 310.104797
v -0.015329 75.529335 321.940735
v -156.014893 75.529335 321.940735
v -0.015329 65.057426 268.317993
v -156.014893 65.057426 268.317993
v -156.014893 57.551022 256.195526
v -156.014893 38.559914 323.151184
v -156.060730 82.295509 328.111908
v -156.060730 70.126961 261.445312
v 158.451508 57.551022 256.195526
v 158.451508 82.295509 328.111908
v 158.451508 38.942513 324.318054
v 158.451508 70.126961 261.445312
v 156.019897 57.551022 256.195526
v 156.019897 38.942513 324.318054
v 156.019897 82.295509 328.111908
v 156.019897 70.126961 261.445312
v 155.979095 65.057426 268.317993
v 155.979095 63.116398 310.104797
v 155.979095 62.421093 269.709564
v 155.979095 75.529335 321.940735
v 47.337135 63.073097 304.497467
v 49.146793 28.317476 304.337006
v 49.146793 63.073097 304.497467
v 47.372898 28.317476 304.337006
v 49.146793 4.619266 291.987610
v 47.301369 4.619266 291.987610
v 49.075497 -8.364028 269.682037
v 47.230083 -8.362420 269.682037
v 49.146793 34.869064 285.765869
v 49.187603 61.662762 285.958435
v 49.075497 15.623485 264.874786
v 49.121349 23.683748 278.783081
v 47.275928 23.683748 278.783081
v 47.321774 34.869064 285.765869
v 47.342178 61.662762 285.958435
v 47.230083 15.628531 264.971100
v -49.151859 63.073097 304.497467
v -47.347473 28.317476 304.337006
v -47.347473 63.073097 304.497467
v -49.121372 28.317476 304.337006
v -47.347473 4.619266 291.987610
v -49.187626 4.619266 291.987610
v -47.413723 -8.364028 269.682037
v -49.258919 -8.362420 269.682037
v -47.347473 34.869064 285.765869
v -47.306664 61.662762 285.958435
v -47.413723 15.623485 264.874786
v -47.367645 23.683748 278.783081
v -49.218113 23.683748 278.783081
v -49.167221 34.869064 285.765869
v -49.151859 61.662762 285.958435
v -49.258919 15.628531 264.971100
vn -0.9894 0.1180 -0.0849
vn -0.6095 -0.0052 -0.7928
vn -0.9956 -0.0791 -0.0506
vn -0.6095 -0.0051 -0.7928
vn -0.6499 0.1954 -0.7345
vn -0.7149 -0.6943 -0.0833
vn -0.3859 -0.8269 -0.4091
vn -0.7149 -0.6942 -0.0833
vn -0.9945 -0.1035 0.0130
vn -0.7346 -0.6783 0.0163
vn -0.9968 -0.0771 0.0229
vn -0.7346 -0.6783 0.0164
vn -0.9945 -0.1035 0.0131
vn -0.6662 -0.7458 0.0049
vn -0.9726 0.2243 0.0604
vn -0.9771 0.2117 0.0196
vn -0.9819 0.1841 -0.0441
vn -0.9930 -0.1098 -0.0441
vn -0.9765 0.1937 -0.0947
vn -0.9928 -0.1176 -0.0245
vn -0.6448 -0.7639 -0.0278
vn -0.6489 -0.7608 -0.0065
vn -0.6448 -0.7639 -0.0277
vn -0.9444 0.3065 0.1192
vn -0.5593 -0.6001 0.5719
vn -0.7675 0.0711 0.6371
vn -0.5593 -0.6000 0.5720
vn -0.7345 -0.6778 0.0327
vn -0.5232 0.8029 -0.2856
vn -0.0000 0.9648 -0.2631
vn -0.0000 0.9927 -0.1209
vn -0.5233 0.8029 -0.2855
vn -0.5893 0.7954 -0.1417
vn -0.7628 0.6465 -0.0098
vn -0.4255 0.9047 0.0212
vn -0.8334 0.5523 0.0196
vn -0.4240 0.9015 0.0866
vn -0.7297 0.6805 0.0670
vn -0.7467 0.6635 0.0474
vn -0.7128 0.6991 0.0572
vn -0.7466 0.6635 0.0473
vn -0.7408 0.6695 0.0539
vn -0.0281 0.9995 0.0147
vn -0.0000 0.9983 0.0588
vn -0.4120 0.8932 -0.1801
vn -0.0000 0.9886 -0.1503
vn -0.3740 0.5832 0.7211
vn -0.0000 0.1573 0.9875
vn -0.0000 0.8105 0.5858
vn -0.5670 0.6130 0.5502
vn -0.7676 0.0711 0.6370
vn -0.5671 0.6130 0.5502
vn -0.7675 0.0711 0.6370
vn -0.0000 0.0421 0.9991
vn -0.4240 0.9015 0.0865
vn -0.4559 0.7667 -0.4521
vn -0.0000 0.4422 -0.8969
vn -0.4558 0.7667 -0.4521
vn -0.0000 0.8669 -0.4985
vn -0.6499 0.1955 -0.7345
vn -0.0000 -0.2610 -0.9653
vn -0.0000 -0.8984 -0.4392
vn -0.6683 0.7378 0.0947
vn -0.8445 0.3356 0.4174
vn -0.7675 0.0710 0.6371
vn -0.0000 -0.8877 0.4604
vn -0.5593 -0.6000 0.5719
vn -0.7345 -0.6778 0.0326
vn -0.0000 -0.9993 0.0376
vn -0.6661 -0.7458 0.0048
vn -0.0000 -1.0000 -0.0000
vn -0.6661 -0.7458 0.0049
vn -0.0000 -0.9999 0.0163
vn -0.0000 -1.0000 0.0016
vn -0.0000 -0.9993 0.0375
vn -0.6489 -0.7609 -0.0065
vn -0.3860 -0.8269 -0.4091
vn 0.0002 -0.8984 -0.4392
vn -0.7149 -0.6942 -0.0832
vn -0.0214 0.9998 -0.0033
vn -0.4188 0.9081 0.0016
vn -0.0000 0.9886 -0.1504
vn -0.5894 0.7954 -0.1417
vn -0.4120 0.8932 -0.1802
vn -0.9329 0.2775 0.2294
vn -0.9894 0.1181 -0.0849
vn -0.9771 0.2118 0.0196
vn -0.5894 0.7953 -0.1417
vn -0.9330 0.2775 0.2294
vn -0.9726 0.2243 0.0605
vn -0.5233 0.8029 -0.2856
vn -0.4255 0.9047 0.0213
vn -0.8445 0.3356 0.4173
vn -0.6683 0.7379 0.0947
vn -0.4558 0.7667 -0.4522
vn -0.5232 0.8029 -0.2855
vn 0.9894 0.1181 -0.0850
vn 0.6091 -0.0052 -0.7930
vn 0.6496 0.1955 -0.7347
vn 0.6092 -0.0052 -0.7930
vn 0.9956 -0.0792 -0.0507
vn 0.7145 -0.6946 -0.0834
vn 0.6092 -0.0051 -0.7930
vn 0.6091 -0.0052 -0.7931
vn 0.7146 -0.6946 -0.0833
vn 0.3854 -0.8270 -0.4092
vn 0.9945 -0.1036 0.0131
vn 0.7343 -0.6787 0.0163
vn 0.6657 -0.7462 0.0049
vn 0.7343 -0.6787 0.0164
vn 0.9968 -0.0772 0.0229
vn 0.9726 0.2245 0.0604
vn 0.9726 0.2245 0.0605
vn 0.9771 0.2119 0.0196
vn 0.9819 0.1843 -0.0441
vn 0.9930 -0.1098 -0.0441
vn 0.9927 -0.1177 -0.0245
vn 0.9764 0.1938 -0.0948
vn 0.9930 -0.1099 -0.0441
vn 0.6443 -0.7643 -0.0278
vn 0.6485 -0.7612 -0.0066
vn 0.9443 0.3067 0.1193
vn 0.5590 -0.6002 0.5721
vn 0.7342 -0.6782 0.0327
vn 0.7673 0.0711 0.6373
vn 0.5228 0.8032 -0.2856
vn 0.5889 0.7957 -0.1417
vn 0.7632 0.6461 -0.0082
vn 0.4249 0.9050 0.0212
vn 0.4181 0.9039 0.0898
vn 0.8332 0.5527 0.0196
vn 0.7241 0.6871 0.0605
vn 0.7383 0.6722 0.0556
vn 0.7018 0.7086 0.0735
vn 0.7241 0.6871 0.0604
vn 0.7493 0.6600 0.0539
vn 0.4182 0.9039 0.0898
vn 0.0274 0.9995 0.0147
vn 0.0273 0.9995 0.0147
vn 0.4249 0.9050 0.0213
vn 0.4115 0.8934 -0.1802
vn 0.5890 0.7956 -0.1417
vn 0.3704 0.5841 0.7223
vn 0.6397 0.6582 0.3969
vn 0.3703 0.5841 0.7223
vn 0.7674 0.0712 0.6373
vn 0.7674 0.0711 0.6373
vn 0.4182 0.9039 0.0899
vn 0.4553 0.7669 -0.4522
vn 0.6495 0.1955 -0.7348
vn 0.6496 0.1955 -0.7348
vn 0.6091 -0.0051 -0.7930
vn 0.3854 -0.8271 -0.4092
vn 0.6604 0.7440 0.1013
vn 0.8443 0.3357 0.4176
vn -0.0001 -0.8877 0.4604
vn 0.6657 -0.7462 0.0050
vn 0.7343 -0.6786 0.0164
vn 0.6485 -0.7612 -0.0065
vn 0.7343 -0.6786 0.0163
vn 0.7342 -0.6782 0.0326
vn 0.7145 -0.6946 -0.0833
vn 0.0207 0.9998 -0.0033
vn 0.4182 0.9083 0.0017
vn 0.8332 0.5526 0.0196
vn 0.4182 0.9084 0.0016
vn 0.6658 -0.7462 0.0049
vn 0.9956 -0.0792 -0.0506
vn 0.9329 0.2776 0.2295
vn 0.9329 0.2777 0.2295
vn 0.9765 0.1938 -0.0948
vn 0.8443 0.3358 0.4176
vn 0.7632 0.6461 -0.0081
vn 0.5889 0.7956 -0.1418
vn 0.4182 0.9083 0.0016
vn 0.4553 0.7669 -0.4523
vn 0.9894 0.1181 -0.0849
vn 0.4554 0.7669 -0.4522
vn -0.4241 0.9015 0.0866
vn -0.7466 0.6635 0.0474
vn -0.7628 0.6466 -0.0098
vn -0.7297 0.6805 0.0669
vn -0.7128 0.6990 0.0572
vn -0.3740 0.5831 0.7211
vn 0.4181 0.9039 0.0899
vn 0.7240 0.6871 0.0604
vn 0.6398 0.6582 0.3969
vn -0.6659 -0.6084 0.4318
vn -0.7756 0.5061 -0.3772
vn -0.6812 -0.3111 -0.6626
vn -0.6366 0.5401 0.5504
vn -0.2725 -0.8890 0.3681
vn -0.7665 -0.5502 -0.3313
vn -0.2700 -0.7046 -0.6563
vn -0.2724 -0.8890 0.3681
vn -0.7765 -0.5574 0.2937
vn -0.2645 -0.2589 0.9290
vn -0.7765 -0.5574 0.2938
vn -0.3871 0.4295 0.8159
vn -0.2830 0.7387 -0.6117
vn -0.3872 0.4295 0.8159
vn -0.2646 -0.2589 0.9290
vn -0.6401 0.3341 -0.6918
vn -0.2699 -0.7046 -0.6563
vn -0.6401 0.3342 -0.6918
vn -0.2831 0.7387 -0.6117
vn 0.4876 -0.3712 -0.7903
vn 0.4721 -0.7189 0.5102
vn 0.4875 -0.3712 -0.7903
vn -0.6659 -0.6083 0.4318
vn -0.6812 -0.3112 -0.6626
vn 0.4722 -0.7188 0.5102
vn 0.4439 0.6276 0.6396
vn 0.5935 0.6454 -0.4809
vn -0.6367 0.5401 0.5504
vn 0.4438 0.6276 0.6396
vn 0.5934 0.6454 -0.4810
vn -0.6813 -0.3112 -0.6626
vn 0.4876 -0.3711 -0.7903
vn 0.4721 -0.7189 0.5103
vn 0.5934 0.6454 -0.4809
vn -0.3872 0.4294 0.8159
vn 0.5972 -0.3410 -0.7260
vn 0.5633 0.5974 0.5707
vn 0.5702 -0.6512 0.5008
vn 0.5633 0.5974 0.5708
vn 0.7010 0.5718 -0.4262
vn 0.5703 -0.6512 0.5007
vn -0.5971 -0.3410 -0.7261
vn -0.5972 -0.3410 -0.7260
vn -0.5702 -0.6512 0.5008
vn 0.5634 0.5974 0.5708
vn -0.5702 -0.6512 0.5007
vn -0.5702 -0.6513 0.5007
vn 0.5634 0.5974 0.5707
vn -0.5633 0.5974 0.5708
vn -0.7010 0.5718 -0.4261
vn 0.5972 -0.3409 -0.7260
vn -0.7010 0.5719 -0.4261
vn 0.7010 0.5718 -0.4261
vn -0.7010 0.5718 -0.4262
vn -0.5633 0.5974 0.5707
vn 0.5546 0.3619 -0.7493
vn 0.7021 -0.6300 0.3320
vn 0.6906 -0.6196 -0.3731
vn 0.3184 0.4415 0.8388
vn -0.5921 0.5796 0.5599
vn 0.7070 -0.2307 0.6685
vn 0.5921 0.5796 0.5599
vn 0.7070 -0.2307 0.6686
vn -0.7070 -0.2307 0.6686
vn -0.7070 -0.2307 0.6685
vn 0.7080 -0.5197 0.4782
vn 0.7079 -0.5198 0.4782
vn -0.7080 -0.5197 0.4782
vn 0.5325 -0.7820 -0.3238
vn 0.5326 -0.7820 -0.3238
vn -0.5326 -0.7820 -0.3238
vn 0.7459 0.1217 -0.6549
vn 0.6407 0.5226 -0.5625
vn 0.7080 -0.5198 0.4781
vn 0.5921 0.5796 0.5598
vn 0.7070 -0.2306 0.6686
vn 0.7458 0.1217 -0.6549
vn 0.6847 0.2234 -0.6937
vn 0.7680 0.4385 -0.4669
vn 0.6847 0.2234 -0.6938
vn 0.7680 0.4385 -0.4668
vn -0.7680 0.4385 -0.4668
vn -0.7458 0.1217 -0.6549
vn -0.7070 -0.2306 0.6686
vn -0.7680 0.4385 -0.4669
vn -0.6406 0.5226 -0.5626
vn 0.5921 0.5796 0.5600
vn 0.6406 0.5226 -0.5626
vn -0.5921 0.5796 0.5600
vn 0.7458 0.1216 -0.6549
vn -0.7459 0.1217 -0.6549
vn 0.6846 0.2234 -0.6938
vn -0.5326 -0.7820 -0.3237
vn -0.6967 0.2842 -0.6587
vn -0.6966 0.2841 -0.6588
vn 0.6407 0.5225 -0.5626
vn -0.6407 0.5226 -0.5626
vn -0.6966 0.2841 -0.6587
vn 0.6905 -0.6196 -0.3732
vn 0.3185 0.4415 0.8388
vn 0.7021 -0.6300 0.3319
vn 0.5546 0.3619 -0.7492
vn -0.2699 -0.7045 -0.6563
vn 0.5546 0.3620 -0.7493
vn -0.6764 0.5297 0.5117
vn 0.5999 -0.2610 0.7563
vn 0.4827 0.6299 0.6085
vn -0.6764 0.5298 0.5117
vn -0.7808 -0.2038 0.5907
vn -0.7808 -0.2037 0.5907
vn 0.6009 -0.5882 0.5412
vn 0.6010 -0.5882 0.5412
vn -0.7808 -0.2038 0.5906
vn -0.7816 -0.4591 0.4223
vn 0.4268 -0.8356 -0.3459
vn 0.4269 -0.8355 -0.3459
vn -0.6183 -0.7262 -0.3007
vn 0.4826 0.6299 0.6085
vn 0.6431 0.1399 -0.7529
vn 0.5305 0.5769 -0.6211
vn 0.6009 -0.5883 0.5411
vn 0.4826 0.6300 0.6085
vn 0.5999 -0.2609 0.7564
vn 0.5760 0.2505 -0.7781
vn 0.6009 -0.5883 0.5412
vn 0.6687 0.5091 -0.5420
vn 0.6009 -0.5882 0.5411
vn 0.5760 0.2506 -0.7781
vn 0.6687 0.5091 -0.5419
vn -0.8319 0.3799 -0.4046
vn -0.7808 -0.2039 0.5906
vn -0.8137 0.1062 -0.5715
vn -0.8318 0.3800 -0.4046
vn -0.7816 -0.4590 0.4223
vn -0.7218 0.4710 -0.5070
vn 0.4826 0.6299 0.6086
vn 0.5305 0.5770 -0.6211
vn -0.8318 0.3800 -0.4045
vn 0.6687 0.5090 -0.5420
vn -0.8137 0.1062 -0.5716
vn 0.5759 0.2505 -0.7781
vn -0.6182 -0.7262 -0.3006
vn -0.7719 0.2519 -0.5838
vn -0.7718 0.2518 -0.5838
vn -0.7718 0.2518 -0.5839
vn -0.7218 0.4711 -0.5070
vn 0.6431 0.1398 -0.7529
vn -0.7218 0.4710 -0.5071
vn -0.6764 0.5297 0.5118
vn -0.6182 -0.7262 -0.3007
vn -0.6183 -0.7262 -0.3006
vn -0.7816 -0.4590 0.4224
vt 0.000000 1.000000
s 0
usemtl Default_Material
f 1/1/1 2/1/2 3/1/3
f 2/1/4 1/1/1 4/1/5
f 5/1/6 2/1/4 6/1/7
f 2/1/2 5/1/8 3/1/3
f 7/1/9 8/1/10 9/1/11
f 8/1/12 7/1/13 10/1/14
f 11/1/15 9/1/11 12/1/16
f 9/1/11 11/1/15 7/1/9
f 13/1/17 14/1/18 15/1/19
f 14/1/18 13/1/17 16/1/20
f 14/1/18 17/1/21 18/1/22
f 17/1/23 14/1/18 16/1/20
f 19/1/24 20/1/25 21/1/26
f 20/1/27 19/1/24 22/1/28
f 8/1/12 16/1/20 9/1/11
f 16/1/20 8/1/10 17/1/23
f 23/1/29 24/1/30 25/1/31
f 24/1/30 23/1/32 26/1/33
f 27/1/34 28/1/35 29/1/36
f 28/1/35 27/1/34 30/1/37
f 31/1/38 32/1/39 33/1/40
f 32/1/41 31/1/38 34/1/42
f 30/1/37 35/1/43 28/1/35
f 35/1/43 30/1/37 36/1/44
f 37/1/45 24/1/30 26/1/33
f 24/1/30 37/1/45 38/1/46
f 39/1/47 40/1/48 41/1/49
f 40/1/48 39/1/47 42/1/50
f 21/1/51 40/1/48 42/1/52
f 40/1/48 21/1/53 43/1/54
f 30/1/37 41/1/49 36/1/44
f 41/1/49 30/1/55 39/1/47
f 44/1/56 45/1/57 4/1/5
f 45/1/57 44/1/58 46/1/59
f 4/1/60 47/1/61 2/1/4
f 47/1/61 4/1/5 45/1/57
f 47/1/61 6/1/7 2/1/2
f 6/1/7 47/1/61 48/1/62
f 19/1/24 49/1/63 50/1/64
f 21/1/53 49/1/63 19/1/24
f 42/1/52 49/1/63 21/1/26
f 20/1/27 43/1/54 21/1/65
f 43/1/54 20/1/27 51/1/66
f 22/1/28 51/1/66 20/1/67
f 51/1/66 22/1/68 52/1/69
f 10/1/70 53/1/71 8/1/12
f 53/1/71 10/1/72 54/1/71
f 17/1/21 55/1/73 18/1/22
f 55/1/73 17/1/23 56/1/74
f 8/1/12 56/1/74 17/1/21
f 56/1/74 8/1/10 53/1/71
f 22/1/68 55/1/73 52/1/75
f 55/1/73 22/1/68 18/1/76
f 6/1/77 57/1/71 5/1/8
f 57/1/71 6/1/7 48/1/78
f 57/1/71 10/1/72 5/1/79
f 10/1/72 57/1/71 54/1/71
f 58/1/80 37/1/45 59/1/81
f 37/1/45 58/1/80 38/1/82
f 59/1/81 29/1/36 28/1/35
f 37/1/45 29/1/36 59/1/81
f 26/1/83 29/1/36 37/1/84
f 60/1/85 7/1/13 11/1/15
f 1/1/1 7/1/13 60/1/85
f 10/1/14 3/1/3 5/1/6
f 10/1/72 1/1/1 3/1/3
f 10/1/14 7/1/13 1/1/86
f 50/1/64 22/1/28 19/1/24
f 15/1/19 22/1/68 50/1/64
f 14/1/18 22/1/28 15/1/19
f 18/1/22 22/1/68 14/1/18
f 13/1/17 9/1/11 16/1/20
f 9/1/11 13/1/17 12/1/16
f 27/1/34 13/1/17 15/1/19
f 13/1/17 27/1/34 29/1/36
f 29/1/36 12/1/16 13/1/17
f 12/1/87 29/1/36 26/1/88
f 26/1/33 11/1/15 12/1/16
f 23/1/32 11/1/15 26/1/88
f 60/1/89 11/1/90 23/1/91
f 36/1/44 58/1/80 35/1/43
f 58/1/80 36/1/44 38/1/46
f 28/1/92 58/1/80 59/1/81
f 58/1/80 28/1/35 35/1/43
f 27/1/34 50/1/93 49/1/94
f 50/1/64 27/1/34 15/1/19
f 1/1/1 44/1/58 4/1/5
f 60/1/85 44/1/58 1/1/1
f 23/1/32 44/1/58 60/1/89
f 44/1/95 25/1/31 46/1/59
f 25/1/31 44/1/95 23/1/96
f 61/1/97 62/1/98 63/1/99
f 62/1/100 61/1/97 64/1/101
f 65/1/102 62/1/103 64/1/101
f 62/1/104 65/1/105 66/1/106
f 67/1/107 68/1/108 69/1/109
f 68/1/110 67/1/107 70/1/111
f 71/1/112 70/1/111 67/1/107
f 70/1/111 71/1/113 72/1/114
f 73/1/115 74/1/116 75/1/117
f 74/1/116 73/1/115 76/1/118
f 74/1/119 77/1/120 75/1/117
f 77/1/120 74/1/116 78/1/121
f 79/1/122 80/1/123 81/1/124
f 80/1/123 79/1/122 82/1/125
f 68/1/110 75/1/117 77/1/120
f 75/1/117 68/1/108 70/1/111
f 24/1/30 83/1/126 25/1/31
f 83/1/126 24/1/30 84/1/127
f 85/1/128 86/1/129 87/1/130
f 86/1/129 85/1/128 88/1/131
f 89/1/132 90/1/133 91/1/134
f 90/1/133 89/1/135 92/1/136
f 87/1/137 93/1/138 36/1/44
f 93/1/139 87/1/137 86/1/140
f 94/1/141 24/1/30 38/1/46
f 24/1/30 94/1/141 84/1/142
f 95/1/143 40/1/48 96/1/144
f 40/1/48 95/1/145 41/1/49
f 82/1/146 40/1/48 43/1/54
f 40/1/48 82/1/147 96/1/144
f 87/1/148 41/1/49 95/1/143
f 41/1/49 87/1/130 36/1/44
f 97/1/149 45/1/57 46/1/59
f 45/1/57 97/1/149 63/1/150
f 63/1/151 47/1/61 45/1/57
f 47/1/61 63/1/99 62/1/152
f 47/1/61 66/1/153 48/1/62
f 66/1/153 47/1/61 62/1/100
f 82/1/125 98/1/154 96/1/144
f 79/1/122 98/1/154 82/1/125
f 99/1/155 98/1/154 79/1/122
f 80/1/123 43/1/54 51/1/66
f 43/1/54 80/1/123 82/1/125
f 81/1/124 51/1/156 52/1/69
f 51/1/66 81/1/124 80/1/123
f 69/1/109 53/1/71 54/1/71
f 53/1/71 69/1/157 68/1/158
f 77/1/120 55/1/73 56/1/74
f 55/1/73 77/1/120 78/1/159
f 68/1/160 56/1/74 53/1/71
f 56/1/74 68/1/158 77/1/120
f 81/1/161 55/1/73 78/1/121
f 55/1/73 81/1/161 52/1/69
f 66/1/106 57/1/71 48/1/62
f 57/1/71 66/1/106 65/1/102
f 57/1/71 69/1/109 54/1/71
f 69/1/109 57/1/71 65/1/162
f 100/1/163 94/1/141 38/1/82
f 94/1/141 100/1/163 101/1/164
f 94/1/141 88/1/165 84/1/142
f 101/1/166 88/1/165 94/1/141
f 86/1/140 88/1/165 101/1/166
f 64/1/101 69/1/109 65/1/105
f 61/1/97 69/1/167 64/1/168
f 67/1/107 102/1/169 71/1/113
f 67/1/107 61/1/97 102/1/170
f 67/1/107 69/1/109 61/1/97
f 74/1/116 81/1/124 78/1/159
f 76/1/171 81/1/124 74/1/116
f 99/1/172 81/1/161 76/1/171
f 79/1/122 81/1/161 99/1/172
f 73/1/115 70/1/111 72/1/114
f 70/1/111 73/1/115 75/1/117
f 85/1/128 73/1/115 88/1/165
f 73/1/115 85/1/173 76/1/118
f 88/1/165 72/1/114 84/1/142
f 72/1/114 88/1/165 73/1/115
f 83/1/126 71/1/113 102/1/169
f 84/1/174 71/1/113 83/1/126
f 72/1/114 71/1/113 84/1/127
f 36/1/44 100/1/163 38/1/46
f 100/1/163 36/1/44 93/1/139
f 86/1/129 100/1/163 93/1/138
f 100/1/163 86/1/129 101/1/175
f 85/1/128 99/1/172 76/1/171
f 99/1/172 85/1/173 98/1/154
f 102/1/169 97/1/176 83/1/126
f 61/1/177 97/1/178 102/1/169
f 63/1/150 97/1/176 61/1/177
f 97/1/176 25/1/31 83/1/126
f 25/1/31 97/1/176 46/1/59
f 30/1/179 32/1/180 34/1/42
f 32/1/41 30/1/179 27/1/181
f 32/1/39 27/1/34 49/1/63
f 49/1/63 33/1/40 32/1/180
f 33/1/40 49/1/63 42/1/52
f 33/1/40 39/1/47 31/1/182
f 39/1/47 33/1/183 42/1/52
f 39/1/184 34/1/42 31/1/38
f 34/1/42 39/1/47 30/1/37
f 85/1/128 90/1/133 92/1/136
f 90/1/133 85/1/128 87/1/185
f 87/1/130 91/1/134 90/1/133
f 91/1/134 87/1/148 95/1/143
f 91/1/134 96/1/144 89/1/132
f 96/1/144 91/1/134 95/1/143
f 96/1/144 92/1/136 89/1/186
f 92/1/136 96/1/187 98/1/154
f 92/1/136 98/1/154 85/1/128
f 103/1/188 104/1/189 105/1/190
f 104/1/189 103/1/188 106/1/191
f 107/1/192 108/1/193 109/1/194
f 108/1/193 107/1/195 110/1/196
f 111/1/197 110/1/198 107/1/192
f 110/1/196 111/1/197 112/1/199
f 113/1/200 112/1/201 111/1/202
f 112/1/199 113/1/200 114/1/203
f 109/1/204 114/1/205 113/1/206
f 114/1/203 109/1/204 108/1/193
f 103/1/188 115/1/207 116/1/208
f 115/1/209 103/1/210 105/1/211
f 106/1/191 116/1/212 117/1/213
f 116/1/208 106/1/191 103/1/210
f 118/1/214 106/1/215 117/1/216
f 106/1/215 118/1/217 104/1/189
f 105/1/218 118/1/217 115/1/219
f 118/1/217 105/1/218 104/1/189
f 118/1/217 116/1/208 115/1/209
f 116/1/220 118/1/221 117/1/213
f 110/1/196 114/1/203 108/1/193
f 114/1/203 110/1/196 112/1/222
f 119/1/223 120/1/224 121/1/225
f 120/1/226 119/1/223 122/1/227
f 121/1/228 123/1/229 119/1/223
f 123/1/230 121/1/228 124/1/231
f 120/1/232 124/1/233 121/1/228
f 124/1/234 120/1/235 125/1/236
f 126/1/237 120/1/226 122/1/227
f 120/1/232 126/1/237 125/1/236
f 119/1/238 126/1/239 122/1/240
f 126/1/239 119/1/238 123/1/230
f 124/1/231 126/1/241 123/1/230
f 126/1/237 124/1/233 125/1/242
f 127/1/243 128/1/244 129/1/245
f 128/1/244 127/1/243 130/1/246
f 131/1/247 132/1/248 133/1/249
f 132/1/250 131/1/247 134/1/251
f 134/1/252 135/1/253 132/1/250
f 135/1/254 134/1/252 136/1/255
f 136/1/255 137/1/256 135/1/253
f 137/1/257 136/1/255 138/1/258
f 133/1/249 139/1/259 140/1/260
f 135/1/261 133/1/262 132/1/263
f 135/1/253 139/1/264 133/1/249
f 141/1/265 135/1/253 137/1/257
f 142/1/266 135/1/253 141/1/267
f 142/1/268 139/1/264 135/1/253
f 143/1/269 134/1/252 144/1/270
f 134/1/271 143/1/272 136/1/255
f 145/1/273 133/1/274 140/1/275
f 133/1/249 145/1/273 131/1/276
f 143/1/272 139/1/259 142/1/268
f 139/1/277 143/1/272 144/1/278
f 138/1/258 141/1/265 137/1/257
f 141/1/279 138/1/280 146/1/281
f 146/1/281 142/1/268 141/1/267
f 142/1/266 146/1/282 143/1/269
f 140/1/283 144/1/270 145/1/273
f 144/1/278 140/1/275 139/1/264
f 144/1/278 131/1/247 145/1/284
f 131/1/247 144/1/270 134/1/251
f 138/1/258 143/1/272 146/1/285
f 143/1/272 138/1/280 136/1/255
f 107/1/195 129/1/286 128/1/244
f 129/1/245 107/1/195 109/1/204
f 111/1/197 128/1/244 130/1/287
f 128/1/288 111/1/197 107/1/192
f 113/1/200 130/1/246 127/1/289
f 130/1/287 113/1/200 111/1/197
f 109/1/290 127/1/243 129/1/245
f 127/1/291 109/1/204 113/1/200
f 147/1/292 148/1/293 149/1/294
f 148/1/293 147/1/295 150/1/296
f 150/1/297 151/1/298 148/1/293
f 151/1/299 150/1/300 152/1/301
f 152/1/301 153/1/302 151/1/298
f 153/1/303 152/1/301 154/1/304
f 149/1/305 155/1/306 156/1/307
f 151/1/308 149/1/309 148/1/310
f 151/1/298 155/1/306 149/1/309
f 157/1/311 151/1/312 153/1/302
f 158/1/313 151/1/314 157/1/315
f 158/1/316 155/1/306 151/1/298
f 159/1/317 150/1/318 160/1/319
f 150/1/300 159/1/320 152/1/321
f 161/1/322 149/1/323 156/1/324
f 149/1/294 161/1/322 147/1/292
f 159/1/325 155/1/306 158/1/326
f 155/1/306 159/1/325 160/1/327
f 154/1/304 157/1/315 153/1/303
f 157/1/328 154/1/329 162/1/330
f 162/1/331 158/1/313 157/1/315
f 158/1/316 162/1/332 159/1/320
f 156/1/324 160/1/319 161/1/333
f 160/1/319 156/1/307 155/1/334
f 160/1/327 147/1/292 161/1/335
f 147/1/336 160/1/327 150/1/296
f 154/1/337 159/1/320 162/1/332
f 159/1/325 154/1/338 152/1/339
