# Exported by ZModeler 3.3.1 (Build 1243) with WavefrontOBJ filter (Build 88)
# 

mtllib deluxocollisionstest3.mtl

v -0.915593 0.129432 -1.42145
v -0.847256 -0.0882282 -2.04127
v -0.901789 -0.0932684 -1.53314
v -0.836645 0.0849519 -2.02663
v -0.881838 -0.257675 -1.53575
v -0.77629 -0.257675 -1.92991
v -0.894755 -0.159312 -0.832405
v -0.867148 -0.257675 -0.537329
v -0.884498 -0.158114 -0.537329
v -0.881838 -0.257675 -0.832601
v -0.915652 0.131117 -0.950109
v -0.888902 0.156965 -0.591965
v -0.898568 0.18319 0.764865
v -0.894902 -0.159312 0.865576
v -0.92709 0.21581 0.994586
v -0.884498 -0.158114 0.701536
v -0.867148 -0.257675 0.701536
v -0.879148 -0.257675 0.865576
v -0.924105 0.21581 1.50945
v -0.858695 -0.21792 2.06268
v -0.858695 0.199161 2.10157
v -0.868981 -0.235782 1.65258
v -0.806704 0.337658 -1.18656
v 2.98023e-08 0.385761 -0.709604
v 2.98023e-08 0.337658 -1.2314
v -0.809512 0.385761 -0.601899
v -0.795147 0.385761 0.949296
v -0.546305 0.677387 0.770877
v -0.809512 0.385761 0.770877
v -0.546305 0.671921 0.932499
v -0.652504 0.479383 1.68395
v -0.779245 0.400614 0.989097
v -0.733727 0.39666 1.68179
v -0.589429 0.622149 0.988378
v -0.129017 0.694508 0.770877
v 2.98023e-08 0.694335 0.932499
v -0.546305 0.677387 -0.031679
v 2.98023e-08 0.690208 -0.0701729
v -0.648248 0.445929 2.04046
v 2.98023e-08 0.385761 2.04046
v 2.98023e-08 0.455993 2.04046
v -0.718505 0.385761 2.04046
v 2.98023e-08 0.199161 2.10157
v -0.756516 0.237609 -1.9305
v 2.98023e-08 0.0849519 -2.08022
v 2.98023e-08 0.237609 -1.96082
v 2.98023e-08 -0.0882282 -2.10133
v 2.98023e-08 -0.257675 -1.96925
v -0.773866 0.385761 1.25202
v -0.928479 0.305054 1.25202
v 2.98023e-08 -0.21792 2.06268
v 2.98023e-08 -0.235782 1.65258
v 2.98023e-08 -0.257675 -0.537329
v 2.98023e-08 -0.257675 -0.853057
v 2.98023e-08 -0.257675 0.886947
v 2.98023e-08 -0.257675 0.701536
v 2.98023e-08 -0.257675 -1.52
v -0.132564 0.688176 0.0518444
v -0.546305 0.677387 0.0453743
v -0.916863 0.220125 -1.1865
v 0.915622 0.129432 -1.42145
v 0.847286 -0.0882282 -2.04127
v 0.836675 0.0849519 -2.02663
v 0.901819 -0.0932684 -1.53314
v 0.881868 -0.257675 -1.53575
v 0.776319 -0.257675 -1.92991
v 0.894784 -0.159312 -0.832405
v 0.867178 -0.257675 -0.537329
v 0.881868 -0.257675 -0.832601
v 0.884528 -0.158114 -0.537329
v 0.915681 0.131117 -0.950109
v 0.888932 0.156965 -0.591965
v 0.898597 0.18319 0.764865
v 0.894932 -0.159312 0.865576
v 0.884528 -0.158114 0.701536
v 0.92712 0.21581 0.994586
v 0.867178 -0.257675 0.701536
v 0.879178 -0.257675 0.865576
v 0.924135 0.21581 1.50945
v 0.858725 -0.21792 2.06268
v 0.86901 -0.235782 1.65258
v 0.858725 0.199161 2.10157
v 0.806733 0.337658 -1.18656
v 0.809541 0.385761 -0.601899
v 0.795177 0.385761 0.949296
v 0.546335 0.677387 0.770877
v 0.546335 0.671921 0.932499
v 0.809541 0.385761 0.770877
v 0.732515 0.397668 1.68506
v 0.587242 0.624732 0.985502
v 0.650613 0.4814 1.68401
v 0.777679 0.402189 0.998377
v 0.129047 0.694508 0.770877
v 0.546335 0.677387 -0.031679
v 0.648278 0.445929 2.04046
v 0.718535 0.385761 2.04046
v 0.756545 0.237609 -1.9305
v 0.773896 0.385761 1.25202
v 0.928509 0.305054 1.25202
v 0.132594 0.688176 0.0518444
v 0.546335 0.677387 0.0453743
v 0.916893 0.220125 -1.1865


vn -0.989374 0.118037 -0.0848933
vn -0.60948 -0.00516398 -0.792795
vn -0.995586 -0.0791088 -0.050625
vn -0.649873 0.195432 -0.734498
vn -0.714911 -0.694249 -0.0832839
vn -0.385927 -0.826861 -0.409114
vn -0.994552 -0.10348 0.0130606
vn -0.73462 -0.678292 0.016325
vn -0.996767 -0.077118 0.0228561
vn -0.666161 -0.745799 0.00489901
vn -0.972646 0.224328 0.0604206
vn -0.977131 0.211746 0.0195969
vn -0.981918 0.184123 -0.0440759
vn -0.992983 -0.109765 -0.0440755
vn -0.976493 0.193661 -0.0947283
vn -0.992761 -0.117607 -0.0244809
vn -0.644744 -0.763903 -0.0277611
vn -0.648915 -0.760844 -0.0065294
vn -0.944379 0.306516 0.119183
vn -0.559312 -0.600038 0.571966
vn -0.767533 0.0710897 0.637058
vn -0.734524 -0.67781 0.0326458
vn -0.523253 0.802922 -0.285524
vn -0 0.964782 -0.263065
vn -0 0.992667 -0.120903
vn -0.589351 0.795366 -0.141702
vn -0.762818 0.646543 -0.00979683
vn -0.425536 0.904699 0.021236
vn -0.833422 0.552303 0.0195869
vn -0.424035 0.901499 0.0865725
vn -0.729696 0.680487 0.066955
vn -0.746648 0.663532 0.0473562
vn -0.712782 0.699056 0.0571626
vn -0.740836 0.669523 0.0538951
vn -0.0280825 0.999501 0.0147065
vn -0 0.998273 0.0588232
vn -0.412023 0.893202 -0.18014
vn -0 0.98864 -0.150358
vn -0.374015 0.583187 0.721121
vn -0 0.157357 0.987544
vn -0 0.810475 0.585774
vn -0.567044 0.613003 0.550174
vn -0 0.0420993 0.999119
vn -0.455832 0.766674 -0.452144
vn -0 0.442175 -0.896936
vn -0 0.866915 -0.49846
vn -0 -0.260997 -0.965347
vn -0 -0.898384 -0.439221
vn -0.668302 0.737845 0.0947036
vn -0.844501 0.335599 0.417367
vn -0 -0.88771 0.460421
vn -0 -0.999299 0.0375608
vn -0 -1 0
vn -0 -1 0
vn -0 -0.999869 0.0163337
vn -0 -1 0.00163294
vn -0 -1 0
vn -0.0214288 0.999774 -0.00326771
vn -0.41881 0.908073 0.00163323
vn -0.932964 0.277465 0.229375
vn 0.989363 0.118123 -0.0849557
vn 0.609159 -0.00516559 -0.793041
vn 0.64955 0.195502 -0.734763
vn 0.99558 -0.079167 -0.0506622
vn 0.714545 -0.694611 -0.0833274
vn 0.385409 -0.827061 -0.409213
vn 0.994544 -0.103556 0.0130702
vn 0.734278 -0.678658 0.0163338
vn 0.665751 -0.746167 0.00490143
vn 0.996761 -0.0771747 0.0228729
vn 0.972604 0.224489 0.0604639
vn 0.977102 0.2119 0.0196112
vn 0.981892 0.184257 -0.0441079
vn 0.992974 -0.109846 -0.0441079
vn 0.992752 -0.117693 -0.0244989
vn 0.976454 0.1938 -0.0947962
vn 0.644311 -0.764266 -0.0277742
vn 0.648485 -0.761205 -0.0065325
vn 0.9443 0.30673 0.119266
vn 0.558997 -0.600195 0.572116
vn 0.734182 -0.678176 0.0326634
vn 0.76735 0.0711157 0.637291
vn 0.522808 0.803179 -0.285615
vn 0.588954 0.795638 -0.141751
vn 0.763215 0.646093 -0.00816828
vn 0.424932 0.904985 0.0212427
vn 0.418156 0.903928 0.0898461
vn 0.833195 0.552643 0.019599
vn 0.724084 0.687065 0.0604476
vn 0.73826 0.672229 0.0555568
vn 0.701787 0.708589 0.0735036
vn 0.749331 0.660008 0.0539217
vn 0.027344 0.999519 0.0147067
vn 0.411468 0.893447 -0.180189
vn 0.370346 0.584112 0.722266
vn 0.639729 0.658194 0.396916
vn 0.45535 0.766887 -0.45227
vn 0.660431 0.744032 0.101274
vn 0.844336 0.335763 0.417571
vn 0.02069 0.999783 -0.00326774
vn 0.418203 0.90836 0.00163375
vn 0.932876 0.277637 0.229517


vt 1.4013e-45 1
vt 1.4013e-45 1
vt 1.4013e-45 1
vt 1.4013e-45 1
vt 1.4013e-45 1
vt 1.4013e-45 1
vt 1.4013e-45 1
vt 1.4013e-45 1
vt 1.4013e-45 1
vt 1.4013e-45 1
vt 1.4013e-45 1
vt 1.4013e-45 1
vt 1.4013e-45 1
vt 1.4013e-45 1
vt 1.4013e-45 1
vt 1.4013e-45 1
vt 1.4013e-45 1
vt 1.4013e-45 1
vt 1.4013e-45 1
vt 1.4013e-45 1
vt 1.4013e-45 1
vt 1.4013e-45 1
vt 1.4013e-45 1
vt 1.4013e-45 1
vt 1.4013e-45 1
vt 1.4013e-45 1
vt 1.4013e-45 1
vt 1.4013e-45 1
vt 1.4013e-45 1
vt 1.4013e-45 1
vt 1.4013e-45 1
vt 1.4013e-45 1
vt 1.4013e-45 1
vt 1.4013e-45 1
vt 1.4013e-45 1
vt 1.4013e-45 1
vt 1.4013e-45 1
vt 1.4013e-45 1
vt 1.4013e-45 1
vt 1.4013e-45 1
vt 1.4013e-45 1
vt 1.4013e-45 1
vt 1.4013e-45 1
vt 1.4013e-45 1
vt 1.4013e-45 1
vt 1.4013e-45 1
vt 1.4013e-45 1
vt 1.4013e-45 1
vt 1.4013e-45 1
vt 1.4013e-45 1
vt 1.4013e-45 1
vt 1.4013e-45 1
vt 1.4013e-45 1
vt 1.4013e-45 1
vt 1.4013e-45 1
vt 1.4013e-45 1
vt 1.4013e-45 1
vt 1.4013e-45 1
vt 1.4013e-45 1
vt 1.4013e-45 1
vt 1.4013e-45 1
vt 1.4013e-45 1
vt 1.4013e-45 1
vt 1.4013e-45 1
vt 1.4013e-45 1
vt 1.4013e-45 1
vt 1.4013e-45 1
vt 1.4013e-45 1
vt 1.4013e-45 1
vt 1.4013e-45 1
vt 1.4013e-45 1
vt 1.4013e-45 1
vt 1.4013e-45 1
vt 1.4013e-45 1
vt 1.4013e-45 1
vt 1.4013e-45 1
vt 1.4013e-45 1
vt 1.4013e-45 1
vt 1.4013e-45 1
vt 1.4013e-45 1
vt 1.4013e-45 1
vt 1.4013e-45 1
vt 1.4013e-45 1
vt 1.4013e-45 1
vt 1.4013e-45 1
vt 1.4013e-45 1
vt 1.4013e-45 1
vt 1.4013e-45 1
vt 1.4013e-45 1
vt 1.4013e-45 1
vt 1.4013e-45 1
vt 1.4013e-45 1
vt 1.4013e-45 1
vt 1.4013e-45 1
vt 1.4013e-45 1
vt 1.4013e-45 1
vt 1.4013e-45 1
vt 1.4013e-45 1
vt 1.4013e-45 1
vt 1.4013e-45 1
vt 1.4013e-45 1
vt 1.4013e-45 1


usemtl Default_Material

g chassis__COL_

f 1/1/1 2/2/2 3/3/3
f 2/2/2 1/1/1 4/4/4
f 5/5/5 2/2/2 6/6/6
f 2/2/2 5/5/5 3/3/3
f 7/7/7 8/8/8 9/9/9
f 8/8/8 7/7/7 10/10/10
f 11/11/11 9/9/9 12/12/12
f 9/9/9 11/11/11 7/7/7
f 13/13/13 14/14/14 15/15/15
f 14/14/14 13/13/13 16/16/16
f 14/14/14 17/17/17 18/18/18
f 17/17/17 14/14/14 16/16/16
f 19/19/19 20/20/20 21/21/21
f 20/20/20 19/19/19 22/22/22
f 8/8/8 16/16/16 9/9/9
f 16/16/16 8/8/8 17/17/17
f 23/23/23 24/24/24 25/25/25
f 24/24/24 23/23/23 26/26/26
f 27/27/27 28/28/28 29/29/29
f 28/28/28 27/27/27 30/30/30
f 31/31/31 32/32/32 33/33/33
f 32/32/32 31/31/31 34/34/34
f 30/30/30 35/35/35 28/28/28
f 35/35/35 30/30/30 36/36/36
f 37/37/37 24/24/24 26/26/26
f 24/24/24 37/37/37 38/38/38
f 39/39/39 40/40/40 41/41/41
f 40/40/40 39/39/39 42/42/42
f 21/21/21 40/40/40 42/42/42
f 40/40/40 21/21/21 43/43/43
f 30/30/30 41/41/41 36/36/36
f 41/41/41 30/30/30 39/39/39
f 44/44/44 45/45/45 4/4/4
f 45/45/45 44/44/44 46/46/46
f 4/4/4 47/47/47 2/2/2
f 47/47/47 4/4/4 45/45/45
f 47/47/47 6/6/6 2/2/2
f 6/6/6 47/47/47 48/48/48
f 19/19/19 49/49/49 50/50/50
f 21/21/21 49/49/49 19/19/19
f 42/42/42 49/49/49 21/21/21
f 20/20/20 43/43/43 21/21/21
f 43/43/43 20/20/20 51/51/51
f 22/22/22 51/51/51 20/20/20
f 51/51/51 22/22/22 52/52/52
f 10/10/10 53/53/53 8/8/8
f 53/53/53 10/10/10 54/54/54
f 17/17/17 55/55/55 18/18/18
f 55/55/55 17/17/17 56/56/56
f 8/8/8 56/56/56 17/17/17
f 56/56/56 8/8/8 53/53/53
f 22/22/22 55/55/55 52/52/52
f 55/55/55 22/22/22 18/18/18
f 6/6/6 57/57/57 5/5/5
f 57/57/57 6/6/6 48/48/48
f 57/57/57 10/10/10 5/5/5
f 10/10/10 57/57/57 54/54/54
f 58/58/58 37/37/37 59/59/59
f 37/37/37 58/58/58 38/38/38
f 59/59/59 29/29/29 28/28/28
f 37/37/37 29/29/29 59/59/59
f 26/26/26 29/29/29 37/37/37
f 60/60/60 7/7/7 11/11/11
f 1/1/1 7/7/7 60/60/60
f 10/10/10 3/3/3 5/5/5
f 10/10/10 1/1/1 3/3/3
f 10/10/10 7/7/7 1/1/1
f 50/50/50 22/22/22 19/19/19
f 15/15/15 22/22/22 50/50/50
f 14/14/14 22/22/22 15/15/15
f 18/18/18 22/22/22 14/14/14
f 13/13/13 9/9/9 16/16/16
f 9/9/9 13/13/13 12/12/12
f 27/27/27 13/13/13 15/15/15
f 13/13/13 27/27/27 29/29/29
f 29/29/29 12/12/12 13/13/13
f 12/12/12 29/29/29 26/26/26
f 26/26/26 11/11/11 12/12/12
f 23/23/23 11/11/11 26/26/26
f 60/60/60 11/11/11 23/23/23
f 36/36/36 58/58/58 35/35/35
f 58/58/58 36/36/36 38/38/38
f 28/28/28 58/58/58 59/59/59
f 58/58/58 28/28/28 35/35/35
f 27/27/27 50/50/50 49/49/49
f 50/50/50 27/27/27 15/15/15
f 1/1/1 44/44/44 4/4/4
f 60/60/60 44/44/44 1/1/1
f 23/23/23 44/44/44 60/60/60
f 44/44/44 25/25/25 46/46/46
f 25/25/25 44/44/44 23/23/23
f 61/61/61 62/62/62 63/63/63
f 62/62/62 61/61/61 64/64/64
f 65/65/65 62/62/62 64/64/64
f 62/62/62 65/65/65 66/66/66
f 67/67/67 68/68/68 69/69/69
f 68/68/68 67/67/67 70/70/70
f 71/71/71 70/70/70 67/67/67
f 70/70/70 71/71/71 72/72/72
f 73/73/73 74/74/74 75/75/75
f 74/74/74 73/73/73 76/76/76
f 74/74/74 77/77/77 75/75/75
f 77/77/77 74/74/74 78/78/78
f 79/79/79 80/80/80 81/81/81
f 80/80/80 79/79/79 82/82/82
f 68/68/68 75/75/75 77/77/77
f 75/75/75 68/68/68 70/70/70
f 24/24/24 83/83/83 25/25/25
f 83/83/83 24/24/24 84/84/84
f 85/85/85 86/86/86 87/87/87
f 86/86/86 85/85/85 88/88/88
f 89/89/89 90/90/90 91/91/91
f 90/90/90 89/89/89 92/92/92
f 87/87/87 93/93/93 36/36/36
f 93/93/93 87/87/87 86/86/86
f 94/94/94 24/24/24 38/38/38
f 24/24/24 94/94/94 84/84/84
f 95/95/95 40/40/40 96/96/96
f 40/40/40 95/95/95 41/41/41
f 82/82/82 40/40/40 43/43/43
f 40/40/40 82/82/82 96/96/96
f 87/87/87 41/41/41 95/95/95
f 41/41/41 87/87/87 36/36/36
f 97/97/97 45/45/45 46/46/46
f 45/45/45 97/97/97 63/63/63
f 63/63/63 47/47/47 45/45/45
f 47/47/47 63/63/63 62/62/62
f 47/47/47 66/66/66 48/48/48
f 66/66/66 47/47/47 62/62/62
f 82/82/82 98/98/98 96/96/96
f 79/79/79 98/98/98 82/82/82
f 99/99/99 98/98/98 79/79/79
f 80/80/80 43/43/43 51/51/51
f 43/43/43 80/80/80 82/82/82
f 81/81/81 51/51/51 52/52/52
f 51/51/51 81/81/81 80/80/80
f 69/69/69 53/53/53 54/54/54
f 53/53/53 69/69/69 68/68/68
f 77/77/77 55/55/55 56/56/56
f 55/55/55 77/77/77 78/78/78
f 68/68/68 56/56/56 53/53/53
f 56/56/56 68/68/68 77/77/77
f 81/81/81 55/55/55 78/78/78
f 55/55/55 81/81/81 52/52/52
f 66/66/66 57/57/57 48/48/48
f 57/57/57 66/66/66 65/65/65
f 57/57/57 69/69/69 54/54/54
f 69/69/69 57/57/57 65/65/65
f 100/100/100 94/94/94 38/38/38
f 94/94/94 100/100/100 101/101/101
f 94/94/94 88/88/88 84/84/84
f 101/101/101 88/88/88 94/94/94
f 86/86/86 88/88/88 101/101/101
f 64/64/64 69/69/69 65/65/65
f 61/61/61 69/69/69 64/64/64
f 67/67/67 102/102/102 71/71/71
f 67/67/67 61/61/61 102/102/102
f 67/67/67 69/69/69 61/61/61
f 74/74/74 81/81/81 78/78/78
f 76/76/76 81/81/81 74/74/74
f 99/99/99 81/81/81 76/76/76
f 79/79/79 81/81/81 99/99/99
f 73/73/73 70/70/70 72/72/72
f 70/70/70 73/73/73 75/75/75
f 85/85/85 73/73/73 88/88/88
f 73/73/73 85/85/85 76/76/76
f 88/88/88 72/72/72 84/84/84
f 72/72/72 88/88/88 73/73/73
f 83/83/83 71/71/71 102/102/102
f 84/84/84 71/71/71 83/83/83
f 72/72/72 71/71/71 84/84/84
f 36/36/36 100/100/100 38/38/38
f 100/100/100 36/36/36 93/93/93
f 86/86/86 100/100/100 93/93/93
f 100/100/100 86/86/86 101/101/101
f 85/85/85 99/99/99 76/76/76
f 99/99/99 85/85/85 98/98/98
f 102/102/102 97/97/97 83/83/83
f 61/61/61 97/97/97 102/102/102
f 63/63/63 97/97/97 61/61/61
f 97/97/97 25/25/25 83/83/83
f 25/25/25 97/97/97 46/46/46
f 30/30/30 32/32/32 34/34/34
f 32/32/32 30/30/30 27/27/27
f 32/32/32 27/27/27 49/49/49
f 49/49/49 33/33/33 32/32/32
f 33/33/33 49/49/49 42/42/42
f 33/33/33 39/39/39 31/31/31
f 39/39/39 33/33/33 42/42/42
f 39/39/39 34/34/34 31/31/31
f 34/34/34 39/39/39 30/30/30
f 85/85/85 90/90/90 92/92/92
f 90/90/90 85/85/85 87/87/87
f 87/87/87 91/91/91 90/90/90
f 91/91/91 87/87/87 95/95/95
f 91/91/91 96/96/96 89/89/89
f 96/96/96 91/91/91 95/95/95
f 96/96/96 92/92/92 89/89/89
f 92/92/92 96/96/96 98/98/98
f 92/92/92 98/98/98 85/85/85
