# Blender 4.0.2
# www.blender.org
mtllib DeluxoCol3.mtl
o deluxocollisionstest3
v 45.511501 -79.325142 -1.845333
v 41.990883 -110.304527 -12.728353
v 44.802605 -84.907280 -12.980354
v 41.462788 -109.570763 -4.069346
v 43.804626 -85.034470 -21.200686
v 38.461250 -104.724670 -21.200695
v 44.568245 -49.869568 -16.282528
v 43.237316 -35.111233 -21.200676
v 44.104809 -35.114140 -16.222622
v 43.922371 -49.877205 -21.200680
v 45.593372 -55.758236 -1.761078
v 44.315849 -37.846664 -0.468674
v 45.026344 29.992832 0.842591
v 44.859921 35.028976 -16.282509
v 46.490910 41.474049 2.473594
v 44.312260 26.828764 -16.222609
v 43.444767 26.831669 -21.200663
v 44.072231 35.031616 -21.200661
v 46.427872 67.217613 2.473599
v 43.250038 94.889915 -19.212896
v 43.256538 96.834381 1.641154
v 43.695667 74.383308 -20.105999
v 40.106396 -67.562477 8.565967
v -0.148709 -43.579731 10.971100
v -0.236083 -69.669380 8.565943
v 40.344704 -38.330070 10.971123
v 39.886204 39.231651 10.971140
v 27.414291 30.352415 25.552429
v 40.574577 30.308344 10.971137
v 27.441357 38.433468 25.279133
v 32.877110 75.988037 15.652242
v 39.097771 41.224358 11.713788
v 36.937874 75.866440 11.516096
v 29.606899 41.220184 22.790537
v 6.550006 30.422289 26.408470
v 0.126254 38.524944 26.399815
v 27.279903 -9.775158 25.552422
v -0.041645 -11.608364 26.193459
v 32.724010 93.814163 13.979548
v 0.311791 93.922714 10.971128
v 0.311789 93.922714 14.482729
v 36.236839 93.802399 10.971148
v 0.322029 96.978172 1.641129
v 37.472439 -104.750854 3.563508
v -0.378212 -112.110146 -4.069371
v -0.358222 -106.140175 3.563486
v -0.381742 -113.165649 -12.728376
v -0.359620 -106.561676 -21.200716
v 38.872849 54.371334 10.971142
v 46.603458 54.345444 6.935798
v 0.315529 95.033707 -19.212921
v 0.246858 74.528824 -20.106024
v -0.119844 -34.966030 -21.200701
v -0.172712 -50.752335 -21.200705
v 0.118653 36.247372 -21.200686
v 0.087605 26.976873 -21.200687
v -0.284393 -84.099297 -21.200710
v 6.606952 -5.529730 26.091864
v 27.292807 -5.922515 25.552423
v 45.614342 -67.577919 2.689321
v -46.048744 -79.018509 -1.845385
v -42.735744 -110.020775 -12.728400
v -42.202747 -109.290558 -4.069393
v -45.377293 -84.605263 -12.980406
v -44.380184 -84.739136 -21.200735
v -39.168766 -104.464684 -21.200737
v -44.908199 -49.569908 -16.282578
v -43.478500 -34.820820 -21.200726
v -44.262440 -49.581871 -21.200729
v -44.345997 -34.817917 -16.222672
v -45.972767 -55.451580 -1.761129
v -44.575359 -37.548965 -0.468724
v -44.831398 30.293770 0.842540
v -44.631271 35.328686 -16.282558
v -44.138546 27.124989 -16.222658
v -46.219070 41.784534 2.473541
v -43.271049 27.122084 -21.200712
v -43.843575 35.326050 -21.200710
v -45.983608 67.527100 2.473547
v -42.620480 95.177498 -19.212946
v -43.203392 74.674339 -20.106049
v -42.613979 97.121971 1.641105
v -40.564999 -67.292305 8.565921
v -40.607498 -38.058956 10.971077
v -39.629551 39.497952 10.971094
v -27.217402 30.535378 25.552399
v -27.190336 38.616432 25.279102
v -40.377625 30.579456 10.971091
v -36.373264 76.275459 11.566454
v -29.226805 41.273426 22.919653
v -32.278362 76.209251 15.753057
v -38.746441 41.949062 11.792495
v -6.353124 30.465502 26.408463
v -27.351789 -9.592195 25.552391
v -32.101925 94.031265 13.979511
v -35.614758 94.043037 10.971108
v -38.180183 -104.497490 3.563465
v -38.514816 54.630508 10.971098
v -46.245422 54.656399 6.935745
v -6.650875 -5.485329 26.091856
v -27.338886 -5.739552 25.552393
v -46.072956 -67.270859 2.689269
vn 0.9891 -0.0882 0.1180
vn 0.6068 -0.7948 -0.0052
vn 0.9954 -0.0539 -0.0791
vn 0.6068 -0.7948 -0.0051
vn 0.6474 -0.7367 0.1954
vn 0.7146 -0.0857 -0.6943
vn 0.3845 -0.4104 -0.8269
vn 0.7147 -0.0857 -0.6942
vn 0.9946 0.0098 -0.1035
vn 0.7346 0.0138 -0.6783
vn 0.9968 0.0196 -0.0771
vn 0.7346 0.0139 -0.6783
vn 0.6662 0.0027 -0.7458
vn 0.9728 0.0571 0.2243
vn 0.9772 0.0163 0.2117
vn 0.9968 0.0195 -0.0771
vn 0.9946 0.0097 -0.1035
vn 0.9818 -0.0474 0.1841
vn 0.9928 -0.0474 -0.1098
vn 0.9762 -0.0980 0.1937
vn 0.9927 -0.0278 -0.1176
vn 0.6447 -0.0299 -0.7639
vn 0.6489 -0.0087 -0.7608
vn 0.9448 0.1160 0.3065
vn 0.5612 0.5701 -0.6001
vn 0.7696 0.6345 0.0711
vn 0.5612 0.5701 -0.6000
vn 0.9448 0.1161 0.3065
vn 0.7346 0.0302 -0.6778
vn 0.7347 0.0139 -0.6783
vn 0.5223 -0.2873 0.8029
vn -0.0009 -0.2631 0.9648
vn -0.0004 -0.1209 0.9927
vn 0.5224 -0.2873 0.8029
vn 0.5888 -0.1436 0.7954
vn 0.7628 -0.0124 0.6465
vn 0.4256 0.0198 0.9047
vn 0.8335 0.0168 0.5523
vn 0.7628 -0.0123 0.6465
vn 0.4243 0.0852 0.9015
vn 0.7299 0.0645 0.6805
vn 0.7468 0.0449 0.6635
vn 0.7130 0.0548 0.6991
vn 0.7468 0.0448 0.6636
vn 0.7299 0.0646 0.6805
vn 0.7410 0.0514 0.6695
vn 0.0282 0.0146 0.9995
vn 0.0002 0.0588 0.9983
vn 0.4114 -0.1814 0.8932
vn 0.5888 -0.1437 0.7954
vn 0.4114 -0.1815 0.8932
vn -0.0005 -0.1503 0.9886
vn 0.3765 0.7199 0.5832
vn 0.0033 0.9875 0.1573
vn 0.0020 0.5858 0.8105
vn 0.3764 0.7199 0.5832
vn 0.5688 0.5483 0.6130
vn 0.7697 0.6344 0.0711
vn 0.5689 0.5483 0.6130
vn 0.7697 0.6345 0.0711
vn 0.0034 0.9991 0.0421
vn 0.4243 0.0851 0.9015
vn 0.3765 0.7198 0.5832
vn 0.4544 -0.4536 0.7667
vn -0.0030 -0.8969 0.4422
vn 0.4543 -0.4537 0.7667
vn -0.0017 -0.4985 0.8669
vn 0.6474 -0.7366 0.1955
vn -0.0033 -0.9653 -0.2610
vn -0.0032 -0.9653 -0.2610
vn 0.3846 -0.4104 -0.8269
vn -0.0015 -0.4392 -0.8984
vn 0.6686 0.0925 0.7378
vn 0.8459 0.4145 0.3356
vn 0.0033 0.9991 0.0421
vn 0.7696 0.6345 0.0712
vn 0.0016 0.4604 -0.8877
vn 0.0015 0.4604 -0.8877
vn 0.0001 0.0376 -0.9993
vn 0.6661 0.0026 -0.7458
vn -0.0000 -0.0000 -1.0000
vn 0.0001 0.0163 -0.9999
vn -0.0000 0.0015 -1.0000
vn 0.7347 0.0138 -0.6783
vn 0.0001 0.0375 -0.9993
vn 0.7346 0.0301 -0.6778
vn 0.6488 -0.0087 -0.7609
vn 0.7146 -0.0857 -0.6942
vn -0.0018 -0.4392 -0.8984
vn 0.7146 -0.0856 -0.6942
vn 0.6661 0.0027 -0.7458
vn 0.0214 -0.0034 0.9998
vn 0.4188 0.0002 0.9081
vn -0.0005 -0.1504 0.9886
vn 0.5889 -0.1437 0.7954
vn 0.4114 -0.1816 0.8932
vn 0.9337 0.2263 0.2775
vn 0.9728 0.0572 0.2243
vn 0.6662 0.0026 -0.7458
vn 0.9891 -0.0882 0.1181
vn 0.8459 0.4146 0.3356
vn 0.9762 -0.0979 0.1937
vn 0.9772 0.0163 0.2118
vn 0.5889 -0.1437 0.7953
vn 0.5889 -0.1436 0.7953
vn 0.9337 0.2262 0.2775
vn 0.5224 -0.2873 0.8028
vn 0.0281 0.0146 0.9995
vn 0.0213 -0.0034 0.9998
vn 0.4256 0.0199 0.9047
vn 0.4256 0.0197 0.9047
vn 0.6686 0.0925 0.7379
vn 0.4543 -0.4536 0.7667
vn 0.5223 -0.2872 0.8029
vn 0.5222 -0.2873 0.8029
vn -0.9896 -0.0817 0.1181
vn -0.6118 -0.7910 -0.0052
vn -0.6520 -0.7325 0.1955
vn -0.6119 -0.7909 -0.0052
vn -0.9957 -0.0474 -0.0792
vn -0.7148 -0.0811 -0.6946
vn -0.6118 -0.7910 -0.0051
vn -0.7148 -0.0809 -0.6946
vn -0.3868 -0.4079 -0.8270
vn -0.9945 0.0164 -0.1036
vn -0.7342 0.0188 -0.6787
vn -0.6657 0.0071 -0.7462
vn -0.9967 0.0262 -0.0772
vn -0.9724 0.0636 0.2245
vn -0.9724 0.0638 0.2245
vn -0.9770 0.0229 0.2119
vn -0.9820 -0.0408 0.1843
vn -0.9931 -0.0408 -0.1098
vn -0.9928 -0.0212 -0.1177
vn -0.9768 -0.0915 0.1938
vn -0.9931 -0.0408 -0.1099
vn -0.6444 -0.0257 -0.7643
vn -0.6485 -0.0044 -0.7612
vn -0.9439 0.1224 0.3067
vn -0.5571 0.5740 -0.6002
vn -0.7341 0.0352 -0.6782
vn -0.7652 0.6399 0.0711
vn -0.6444 -0.0256 -0.7643
vn -0.5237 -0.2839 0.8032
vn -0.5238 -0.2839 0.8032
vn -0.5894 -0.1398 0.7957
vn -0.7632 -0.0057 0.6461
vn -0.4248 0.0226 0.9050
vn -0.4178 0.0912 0.9040
vn -0.7632 -0.0056 0.6461
vn -0.8331 0.0224 0.5527
vn -0.7239 0.0629 0.6871
vn -0.7381 0.0581 0.6722
vn -0.7015 0.0758 0.7086
vn -0.7239 0.0628 0.6871
vn -0.7491 0.0564 0.6600
vn -0.4179 0.0912 0.9039
vn -0.0273 0.0148 0.9995
vn -0.0272 0.0148 0.9995
vn -0.4248 0.0227 0.9050
vn -0.4121 -0.1788 0.8934
vn -0.5895 -0.1397 0.7956
vn -0.3679 0.7235 0.5841
vn -0.6383 0.3990 0.6582
vn -0.7652 0.6398 0.0712
vn -0.7652 0.6398 0.0711
vn -0.6384 0.3990 0.6582
vn -0.4179 0.0913 0.9039
vn -0.3680 0.7235 0.5841
vn 0.0019 0.5858 0.8105
vn -0.4178 0.0912 0.9039
vn -0.4568 -0.4507 0.7669
vn -0.6520 -0.7326 0.1955
vn -0.3867 -0.4079 -0.8271
vn -0.3868 -0.4079 -0.8271
vn -0.6601 0.1035 0.7440
vn -0.9439 0.1225 0.3067
vn -0.8429 0.4204 0.3357
vn -0.5570 0.5740 -0.6002
vn -0.7340 0.0351 -0.6782
vn -0.7340 0.0352 -0.6782
vn -0.6657 0.0072 -0.7462
vn -0.7343 0.0188 -0.6786
vn -0.6485 -0.0043 -0.7612
vn -0.7343 0.0187 -0.6786
vn -0.7341 0.0351 -0.6782
vn -0.0014 -0.4392 -0.8984
vn -0.7148 -0.0810 -0.6946
vn -0.0207 -0.0032 0.9998
vn -0.4182 0.0031 0.9083
vn -0.8332 0.0224 0.5526
vn -0.4182 0.0030 0.9084
vn -0.4248 0.0228 0.9050
vn -0.7149 -0.0809 -0.6946
vn -0.9957 -0.0473 -0.0792
vn -0.9321 0.2326 0.2776
vn -0.9321 0.2326 0.2777
vn -0.8429 0.4204 0.3358
vn -0.8331 0.0224 0.5526
vn -0.7632 -0.0055 0.6461
vn -0.5894 -0.1398 0.7956
vn -0.5894 -0.1397 0.7957
vn -0.0206 -0.0032 0.9998
vn -0.4182 0.0030 0.9083
vn -0.4568 -0.4508 0.7669
vn -0.9896 -0.0816 0.1181
vn -0.4569 -0.4507 0.7669
vn -0.5238 -0.2838 0.8032
vn 0.4244 0.0852 0.9015
vn 0.7468 0.0448 0.6635
vn 0.7627 -0.0123 0.6466
vn 0.3764 0.7198 0.5832
vn 0.7130 0.0548 0.6990
vn 0.3765 0.7199 0.5831
vn -0.4178 0.0913 0.9039
vn -0.7015 0.0759 0.7086
vn -0.6384 0.3991 0.6582
vt 0.000000 1.000000
s 0
usemtl Default_Material.002
f 1/1/1 2/1/2 3/1/3
f 2/1/4 1/1/1 4/1/5
f 5/1/6 2/1/4 6/1/7
f 2/1/2 5/1/8 3/1/3
f 7/1/9 8/1/10 9/1/11
f 8/1/12 7/1/9 10/1/13
f 11/1/14 9/1/11 12/1/15
f 9/1/16 11/1/14 7/1/17
f 13/1/18 14/1/19 15/1/20
f 14/1/19 13/1/18 16/1/21
f 14/1/19 17/1/22 18/1/23
f 17/1/22 14/1/19 16/1/21
f 19/1/24 20/1/25 21/1/26
f 20/1/27 19/1/28 22/1/29
f 8/1/30 16/1/21 9/1/11
f 16/1/21 8/1/30 17/1/22
f 23/1/31 24/1/32 25/1/33
f 24/1/32 23/1/34 26/1/35
f 27/1/36 28/1/37 29/1/38
f 28/1/37 27/1/39 30/1/40
f 31/1/41 32/1/42 33/1/43
f 32/1/44 31/1/45 34/1/46
f 30/1/40 35/1/47 28/1/37
f 35/1/47 30/1/40 36/1/48
f 37/1/49 24/1/32 26/1/50
f 24/1/32 37/1/51 38/1/52
f 39/1/53 40/1/54 41/1/55
f 40/1/54 39/1/56 42/1/57
f 21/1/58 40/1/54 42/1/59
f 40/1/54 21/1/60 43/1/61
f 30/1/40 41/1/55 36/1/48
f 41/1/55 30/1/62 39/1/63
f 44/1/64 45/1/65 4/1/5
f 45/1/65 44/1/66 46/1/67
f 4/1/68 47/1/69 2/1/4
f 47/1/69 4/1/5 45/1/65
f 47/1/70 6/1/7 2/1/2
f 6/1/71 47/1/70 48/1/72
f 19/1/24 49/1/73 50/1/74
f 21/1/60 49/1/73 19/1/24
f 42/1/59 49/1/73 21/1/26
f 20/1/27 43/1/75 21/1/76
f 43/1/61 20/1/27 51/1/77
f 22/1/29 51/1/78 20/1/27
f 51/1/78 22/1/29 52/1/79
f 10/1/80 53/1/81 8/1/30
f 53/1/81 10/1/13 54/1/81
f 17/1/22 55/1/82 18/1/23
f 55/1/82 17/1/22 56/1/83
f 8/1/30 56/1/83 17/1/22
f 56/1/83 8/1/84 53/1/81
f 22/1/29 55/1/82 52/1/85
f 55/1/82 22/1/86 18/1/87
f 6/1/71 57/1/81 5/1/88
f 57/1/81 6/1/71 48/1/89
f 57/1/81 10/1/13 5/1/90
f 10/1/91 57/1/81 54/1/81
f 58/1/92 37/1/51 59/1/93
f 37/1/51 58/1/92 38/1/94
f 59/1/93 29/1/38 28/1/37
f 37/1/51 29/1/38 59/1/93
f 26/1/95 29/1/38 37/1/96
f 60/1/97 7/1/9 11/1/98
f 1/1/1 7/1/9 60/1/97
f 10/1/99 3/1/3 5/1/6
f 10/1/91 1/1/1 3/1/3
f 10/1/13 7/1/9 1/1/100
f 50/1/101 22/1/29 19/1/24
f 15/1/102 22/1/29 50/1/101
f 14/1/19 22/1/29 15/1/102
f 18/1/23 22/1/29 14/1/19
f 13/1/18 9/1/11 16/1/21
f 9/1/11 13/1/18 12/1/15
f 27/1/36 13/1/18 15/1/20
f 13/1/18 27/1/36 29/1/38
f 29/1/38 12/1/15 13/1/18
f 12/1/103 29/1/38 26/1/104
f 26/1/50 11/1/14 12/1/15
f 23/1/31 11/1/14 26/1/105
f 60/1/106 11/1/98 23/1/107
f 36/1/48 58/1/92 35/1/108
f 58/1/109 36/1/48 38/1/52
f 28/1/110 58/1/92 59/1/93
f 58/1/92 28/1/111 35/1/47
f 27/1/36 50/1/74 49/1/112
f 50/1/101 27/1/36 15/1/102
f 1/1/1 44/1/113 4/1/5
f 60/1/97 44/1/66 1/1/1
f 23/1/114 44/1/113 60/1/106
f 44/1/66 25/1/33 46/1/67
f 25/1/33 44/1/66 23/1/115
f 61/1/116 62/1/117 63/1/118
f 62/1/119 61/1/116 64/1/120
f 65/1/121 62/1/122 64/1/120
f 62/1/117 65/1/123 66/1/124
f 67/1/125 68/1/126 69/1/127
f 68/1/126 67/1/125 70/1/128
f 71/1/129 70/1/128 67/1/125
f 70/1/128 71/1/130 72/1/131
f 73/1/132 74/1/133 75/1/134
f 74/1/133 73/1/132 76/1/135
f 74/1/136 77/1/137 75/1/134
f 77/1/137 74/1/133 78/1/138
f 79/1/139 80/1/140 81/1/141
f 80/1/140 79/1/139 82/1/142
f 68/1/126 75/1/134 77/1/143
f 75/1/134 68/1/126 70/1/128
f 24/1/32 83/1/144 25/1/33
f 83/1/145 24/1/32 84/1/146
f 85/1/147 86/1/148 87/1/149
f 86/1/148 85/1/150 88/1/151
f 89/1/152 90/1/153 91/1/154
f 90/1/153 89/1/155 92/1/156
f 87/1/157 93/1/158 36/1/48
f 93/1/159 87/1/157 86/1/160
f 94/1/161 24/1/32 38/1/52
f 24/1/32 94/1/161 84/1/162
f 95/1/163 40/1/54 96/1/164
f 40/1/54 95/1/163 41/1/55
f 82/1/165 40/1/54 43/1/75
f 40/1/54 82/1/166 96/1/167
f 87/1/168 41/1/55 95/1/169
f 41/1/170 87/1/171 36/1/48
f 97/1/172 45/1/65 46/1/67
f 45/1/65 97/1/172 63/1/173
f 63/1/173 47/1/70 45/1/65
f 47/1/70 63/1/118 62/1/122
f 47/1/70 66/1/174 48/1/72
f 66/1/175 47/1/70 62/1/117
f 82/1/142 98/1/176 96/1/167
f 79/1/177 98/1/176 82/1/142
f 99/1/178 98/1/176 79/1/139
f 80/1/179 43/1/75 51/1/78
f 43/1/61 80/1/140 82/1/142
f 81/1/180 51/1/77 52/1/79
f 51/1/77 81/1/181 80/1/140
f 69/1/182 53/1/81 54/1/81
f 53/1/81 69/1/182 68/1/183
f 77/1/137 55/1/82 56/1/83
f 55/1/82 77/1/143 78/1/184
f 68/1/185 56/1/83 53/1/81
f 56/1/83 68/1/183 77/1/137
f 81/1/186 55/1/82 78/1/138
f 55/1/82 81/1/186 52/1/79
f 66/1/124 57/1/81 48/1/187
f 57/1/81 66/1/124 65/1/188
f 57/1/81 69/1/127 54/1/81
f 69/1/182 57/1/81 65/1/123
f 100/1/189 94/1/161 38/1/94
f 94/1/161 100/1/189 101/1/190
f 94/1/161 88/1/191 84/1/162
f 101/1/192 88/1/191 94/1/161
f 86/1/193 88/1/191 101/1/192
f 64/1/120 69/1/127 65/1/194
f 61/1/116 69/1/127 64/1/195
f 67/1/125 102/1/196 71/1/130
f 67/1/125 61/1/116 102/1/197
f 67/1/125 69/1/127 61/1/116
f 74/1/133 81/1/186 78/1/138
f 76/1/135 81/1/180 74/1/133
f 99/1/198 81/1/186 76/1/135
f 79/1/139 81/1/186 99/1/198
f 73/1/132 70/1/128 72/1/131
f 70/1/128 73/1/132 75/1/134
f 85/1/147 73/1/132 88/1/199
f 73/1/132 85/1/200 76/1/135
f 88/1/191 72/1/131 84/1/162
f 72/1/131 88/1/199 73/1/132
f 83/1/145 71/1/130 102/1/196
f 84/1/201 71/1/130 83/1/145
f 72/1/131 71/1/130 84/1/202
f 36/1/48 100/1/203 38/1/52
f 100/1/189 36/1/48 93/1/159
f 86/1/148 100/1/189 93/1/158
f 100/1/189 86/1/148 101/1/204
f 85/1/150 99/1/198 76/1/135
f 99/1/198 85/1/200 98/1/176
f 102/1/196 97/1/205 83/1/144
f 61/1/206 97/1/207 102/1/196
f 63/1/173 97/1/207 61/1/206
f 97/1/172 25/1/33 83/1/208
f 25/1/33 97/1/172 46/1/67
f 30/1/209 32/1/42 34/1/46
f 32/1/210 30/1/209 27/1/211
f 32/1/42 27/1/39 49/1/73
f 49/1/73 33/1/43 32/1/210
f 33/1/43 49/1/73 42/1/59
f 33/1/43 39/1/56 31/1/41
f 39/1/212 33/1/213 42/1/59
f 39/1/214 34/1/46 31/1/45
f 34/1/46 39/1/212 30/1/209
f 85/1/147 90/1/153 92/1/156
f 90/1/153 85/1/150 87/1/215
f 87/1/171 91/1/216 90/1/153
f 91/1/154 87/1/168 95/1/169
f 91/1/154 96/1/167 89/1/152
f 96/1/167 91/1/154 95/1/169
f 96/1/217 92/1/156 89/1/155
f 92/1/156 96/1/167 98/1/176
f 92/1/156 98/1/176 85/1/147
