# Blender 4.0.2
# www.blender.org
mtllib Fur_Tuft.mtl
o bone149
v -0.032793 0.993276 -0.653322
v 0.028935 0.993276 -0.653322
v -0.032793 1.060412 -0.350489
v 0.028935 1.060411 -0.350489
v -0.094522 1.006970 -0.591550
v -0.032793 1.006970 -0.591550
v 0.028935 1.033691 -0.471020
v 0.028935 1.006970 -0.591550
v 0.095808 1.033690 -0.471019
v -0.094522 1.047052 -0.410755
v -0.032793 1.047051 -0.410754
v -0.050797 1.047052 -0.410754
v 0.095808 1.006970 -0.591550
v 0.095808 1.008974 -0.582510
vn -0.0000 0.9763 -0.2164
vt 0.210838 0.297139
vt 0.210838 0.109802
vt 0.304506 0.109802
vt 0.109364 0.297139
vt 0.109364 0.123852
vt 0.109364 0.109802
vt 0.210837 0.013791
vt 0.304506 0.013791
vt 0.398174 0.109802
vt 0.331825 0.390808
vt 0.398174 0.390808
vt 0.304506 0.484477
vt 0.210838 0.484477
vt 0.304506 0.390808
s 0
usemtl m_c46f4f41-b2a0-a653-862d-e641fd76fefd
f 7/1/1 8/2/1 6/3/1
f 7/1/1 9/4/1 14/5/1
f 14/5/1 13/6/1 8/2/1
f 8/2/1 2/7/1 6/3/1
f 2/7/1 1/8/1 6/3/1
f 6/3/1 5/9/1 12/10/1
f 5/9/1 10/11/1 12/10/1
f 7/1/1 14/5/1 8/2/1
f 3/12/1 4/13/1 11/14/1
f 4/13/1 7/1/1 11/14/1
f 12/10/1 11/14/1 7/1/1
f 6/3/1 12/10/1 7/1/1
