# Blender 4.0.2
# www.blender.org
mtllib gray_wolf2.mtl
o body
v -0.212500 0.468750 0.596875
v 0.212500 0.468750 -0.015625
v 0.212500 0.468750 0.596875
v 0.212500 0.893750 -0.015625
v 0.212500 0.893750 0.596875
v -0.212500 0.893750 -0.015625
v -0.212500 0.893750 0.596875
v -0.212500 0.468750 -0.015625
vn -0.0000 -1.0000 -0.0000
vn 1.0000 -0.0000 -0.0000
vn -0.0000 1.0000 -0.0000
vn -1.0000 -0.0000 -0.0000
vn -0.0000 -0.0000 -1.0000
vn -0.0000 -0.0000 1.0000
vt 0.644531 0.333008
vt 0.768074 0.147070
vt 0.768555 0.333008
vt 0.891602 0.147461
vt 0.891602 0.333008
vt 0.397461 0.333008
vt 0.520998 0.147070
vt 0.521484 0.333008
vt 0.644531 0.147070
vt 0.768555 0.023438
vt 0.644531 0.023438
vt 0.133789 0.273438
vt 0.007812 0.147461
vt 0.007812 0.273438
vt 0.397461 0.147461
vt 0.133789 0.147461
s 0
usemtl m_76b7eb19-3c8e-a884-7741-b0af6ba8c145
f 1/1/1 2/2/1 3/3/1
f 3/3/2 4/4/2 5/5/2
f 5/6/3 6/7/3 7/8/3
f 7/8/4 8/9/4 1/1/4
f 4/10/5 8/9/5 6/11/5
f 3/12/6 7/13/6 1/14/6
f 1/1/1 8/9/1 2/2/1
f 3/3/2 2/2/2 4/4/2
f 5/6/3 4/15/3 6/7/3
f 7/8/4 6/7/4 8/9/4
f 4/10/5 2/2/5 8/9/5
f 3/12/6 5/16/6 7/13/6
o ear_left
v -0.230992 0.963680 -0.514522
v -0.100363 1.118333 -0.577914
v -0.095128 0.968425 -0.577914
v -0.058172 0.969715 -0.498612
v -0.063407 1.119624 -0.498612
v -0.199270 1.114879 -0.435220
v -0.194035 0.964971 -0.435220
v -0.236227 1.113589 -0.514522
v -0.148734 1.091176 -0.560849
v -0.195767 1.139564 -0.539718
v -0.150479 1.141146 -0.560849
v -0.129361 1.141883 -0.515534
v -0.127616 1.091914 -0.515534
v -0.174649 1.140302 -0.494403
v -0.172904 1.090332 -0.494403
v -0.194022 1.089595 -0.539718
v -0.128825 1.074191 -0.563851
v -0.209957 1.157660 -0.527400
v -0.131836 1.160388 -0.563851
v -0.092397 1.075463 -0.485682
v -0.095407 1.161660 -0.485682
v -0.173528 1.158932 -0.449231
v -0.170518 1.072735 -0.449231
v -0.206947 1.071463 -0.527400
v -0.217351 0.982918 -0.527422
v -0.119380 1.098908 -0.574967
v -0.115453 0.986476 -0.574967
v -0.094335 0.987214 -0.529651
v -0.098262 1.099645 -0.529651
v -0.200159 1.096087 -0.482107
v -0.196233 0.983656 -0.482107
v -0.221277 1.095350 -0.527422
vn -0.4224 -0.0147 -0.9063
vn 0.9058 0.0316 -0.4226
vn 0.4224 0.0147 0.9063
vn -0.9058 -0.0316 0.4226
vn -0.0349 0.9994 -0.0000
vn 0.0349 -0.9994 -0.0000
vn -0.4224 -0.0148 -0.9063
vn 0.4224 0.0148 0.9063
vt 0.907227 0.218750
vt 0.953125 0.172847
vt 0.907227 0.172852
vt 0.907227 0.149414
vt 0.953125 0.149406
vt 0.953125 0.103516
vt 0.907227 0.103516
vt 0.907227 0.242188
vt 0.953125 0.218747
vt 0.976562 0.172852
vt 0.976562 0.218750
vt 0.287109 0.946289
vt 0.334961 0.970703
vt 0.287109 0.970703
vt 0.907227 0.302734
vt 0.921880 0.288093
vt 0.921880 0.302733
vt 0.921875 0.317383
vt 0.907227 0.317383
vt 0.907227 0.257812
vt 0.921880 0.272463
vt 0.907227 0.272461
vt 0.907227 0.288086
vt 0.936523 0.288086
vt 0.910156 0.600586
vt 0.895508 0.585938
vt 0.895508 0.600586
vt 0.337891 0.930664
vt 0.312983 0.905275
vt 0.338145 0.905275
vt 0.364258 0.930664
vt 0.364258 0.905273
vt 0.261719 0.930664
vt 0.287832 0.905275
vt 0.288086 0.930664
vt 0.312500 0.930664
vt 0.312500 0.878906
vt 0.777344 0.718750
vt 0.751953 0.693359
vt 0.751953 0.718750
vt 0.787109 0.974609
vt 0.755371 0.941411
vt 0.754883 0.974609
vt 0.739258 0.974609
vt 0.738938 0.941411
vt 0.707031 0.941406
vt 0.707031 0.974609
vt 0.803711 0.941406
vt 0.787277 0.941411
vt 0.787109 0.925781
vt 0.187500 0.607422
vt 0.203125 0.638672
vt 0.187500 0.638672
vt 0.953125 0.242188
vt 0.334961 0.946289
vt 0.921875 0.257812
vt 0.936523 0.302734
vt 0.910156 0.585938
vt 0.261719 0.905273
vt 0.337891 0.878906
vt 0.777344 0.693359
vt 0.803711 0.974609
vt 0.754883 0.925781
vt 0.203125 0.607422
s 0
usemtl m_76b7eb19-3c8e-a884-7741-b0af6ba8c145
f 9/17/7 10/18/7 11/19/7
f 12/20/8 10/18/8 13/21/8
f 12/20/9 14/22/9 15/23/9
f 15/24/10 16/25/10 9/17/10
f 13/26/11 16/25/11 14/27/11
f 9/28/12 12/29/12 15/30/12
f 17/31/7 18/32/7 19/33/7
f 17/31/8 20/34/8 21/35/8
f 21/36/9 22/37/9 23/38/9
f 23/38/10 18/32/10 24/39/10
f 22/40/11 19/33/11 18/32/11
f 17/41/12 23/42/12 24/43/12
f 25/44/13 26/45/13 27/46/13
f 28/47/8 27/46/8 29/48/8
f 28/49/9 30/50/9 31/51/9
f 31/51/10 26/45/10 32/52/10
f 30/53/11 27/46/11 26/45/11
f 25/54/12 31/55/12 32/56/12
f 33/57/13 34/58/13 35/59/13
f 36/60/8 34/58/8 37/61/8
f 36/60/9 38/62/9 39/63/9
f 33/57/10 38/64/10 40/65/10
f 38/66/11 34/58/11 40/65/11
f 35/67/12 39/68/12 33/69/12
f 9/17/7 16/25/7 10/18/7
f 12/20/8 11/19/8 10/18/8
f 12/20/9 13/21/9 14/22/9
f 15/24/10 14/70/10 16/25/10
f 13/26/11 10/18/11 16/25/11
f 9/28/12 11/71/12 12/29/12
f 17/31/7 24/39/7 18/32/7
f 17/31/8 19/33/8 20/34/8
f 21/36/9 20/72/9 22/37/9
f 23/38/10 22/37/10 18/32/10
f 22/40/11 20/73/11 19/33/11
f 17/41/12 21/74/12 23/42/12
f 25/44/7 32/52/7 26/45/7
f 28/47/8 25/44/8 27/46/8
f 28/49/9 29/75/9 30/50/9
f 31/51/10 30/50/10 26/45/10
f 30/53/11 29/76/11 27/46/11
f 25/54/12 28/77/12 31/55/12
f 33/57/7 40/65/7 34/58/7
f 36/60/8 35/59/8 34/58/8
f 36/60/14 37/61/14 38/62/14
f 33/57/10 39/78/10 38/64/10
f 38/66/11 37/79/11 34/58/11
f 35/67/12 36/80/12 39/68/12
o ear_right
v 0.111803 0.986955 -0.578076
v 0.217627 1.095828 -0.530532
v 0.213700 0.983396 -0.530532
v 0.196509 1.096565 -0.485216
v 0.192582 0.984134 -0.485216
v 0.094611 1.100124 -0.532761
v 0.090685 0.987692 -0.532761
v 0.115729 1.099386 -0.578076
v 0.145988 1.091138 -0.563485
v 0.193021 1.139526 -0.542354
v 0.191276 1.089557 -0.542354
v 0.170158 1.090294 -0.497039
v 0.171903 1.140264 -0.497039
v 0.126615 1.141845 -0.518170
v 0.124870 1.091876 -0.518170
v 0.147733 1.141108 -0.563485
v 0.128033 1.074579 -0.565514
v 0.209165 1.158048 -0.529063
v 0.206155 1.071851 -0.529063
v 0.169726 1.073123 -0.450894
v 0.172736 1.159320 -0.450894
v 0.094615 1.162048 -0.487345
v 0.091605 1.075851 -0.487345
v 0.131043 1.160776 -0.565514
v 0.230778 0.964039 -0.516028
v 0.100149 1.118692 -0.579421
v 0.236013 1.113947 -0.516028
v 0.199056 1.115238 -0.436726
v 0.193821 0.965329 -0.436726
v 0.057958 0.970074 -0.500119
v 0.063193 1.119982 -0.500119
v 0.094914 0.968783 -0.579421
vn 0.4224 -0.0148 -0.9063
vn 0.9058 -0.0316 0.4226
vn -0.4224 0.0147 0.9063
vn -0.9058 0.0316 -0.4226
vn 0.0349 0.9994 -0.0000
vn -0.0349 -0.9994 -0.0000
vn 0.4224 -0.0147 -0.9063
vn -0.4224 0.0148 0.9063
vt 0.546875 0.902344
vt 0.514480 0.935543
vt 0.514648 0.902344
vt 0.498047 0.935547
vt 0.498047 0.902344
vt 0.594727 0.902344
vt 0.562820 0.935543
vt 0.562500 0.902344
vt 0.546387 0.935543
vt 0.514648 0.951172
vt 0.546875 0.951172
vt 0.203125 0.654297
vt 0.187500 0.685547
vt 0.203125 0.685547
vt 0.958984 0.038086
vt 0.973628 0.052733
vt 0.958984 0.052734
vt 0.958984 0.067383
vt 0.973633 0.067383
vt 0.958984 0.007812
vt 0.973628 0.022463
vt 0.958984 0.022461
vt 0.973628 0.038093
vt 0.988281 0.038086
vt 0.206055 0.360352
vt 0.191406 0.345703
vt 0.191406 0.360352
vt 0.431641 0.954102
vt 0.457022 0.928708
vt 0.457031 0.954102
vt 0.482422 0.954102
vt 0.482422 0.928711
vt 0.379883 0.954102
vt 0.405273 0.928708
vt 0.405273 0.954102
vt 0.431632 0.928708
vt 0.431641 0.902344
vt 0.216797 0.458008
vt 0.191406 0.432617
vt 0.191406 0.458008
vt 0.693359 0.856445
vt 0.739263 0.902349
vt 0.693365 0.902349
vt 0.669922 0.902344
vt 0.669922 0.856445
vt 0.762695 0.856445
vt 0.808594 0.902344
vt 0.762701 0.902349
vt 0.739258 0.856445
vt 0.693359 0.925781
vt 0.739258 0.925781
vt 0.904297 0.464844
vt 0.928711 0.416992
vt 0.904297 0.416992
vt 0.594727 0.935547
vt 0.187500 0.654297
vt 0.973633 0.007812
vt 0.988281 0.052734
vt 0.206055 0.345703
vt 0.379883 0.928711
vt 0.457031 0.902344
vt 0.216797 0.432617
vt 0.808594 0.856445
vt 0.928711 0.464844
s 0
usemtl m_76b7eb19-3c8e-a884-7741-b0af6ba8c145
f 41/81/15 42/82/15 43/83/15
f 43/83/16 44/84/16 45/85/16
f 45/86/17 46/87/17 47/88/17
f 41/81/18 46/87/18 48/89/18
f 44/90/19 48/89/19 46/91/19
f 43/92/20 47/93/20 41/94/20
f 49/95/21 50/96/21 51/97/21
f 52/98/16 50/96/16 53/99/16
f 52/100/17 54/101/17 55/102/17
f 55/102/18 56/103/18 49/95/18
f 54/104/19 50/96/19 56/103/19
f 51/105/20 55/106/20 49/107/20
f 57/108/21 58/109/21 59/110/21
f 60/111/16 58/109/16 61/112/16
f 60/113/17 62/114/17 63/115/17
f 57/108/18 62/114/18 64/116/18
f 62/117/19 58/109/19 64/116/19
f 59/118/20 63/119/20 57/120/20
f 65/121/21 66/122/21 67/123/21
f 65/121/16 68/124/16 69/125/16
f 70/126/17 68/127/17 71/128/17
f 70/126/18 66/122/18 72/129/18
f 68/130/19 66/122/19 71/131/19
f 65/132/20 70/133/20 72/134/20
f 41/81/21 48/89/21 42/82/21
f 43/83/16 42/82/16 44/84/16
f 45/86/22 44/135/22 46/87/22
f 41/81/18 47/88/18 46/87/18
f 44/90/19 42/82/19 48/89/19
f 43/92/20 45/136/20 47/93/20
f 49/95/21 56/103/21 50/96/21
f 52/98/16 51/97/16 50/96/16
f 52/100/17 53/137/17 54/101/17
f 55/102/18 54/101/18 56/103/18
f 54/104/19 53/138/19 50/96/19
f 51/105/20 52/139/20 55/106/20
f 57/108/21 64/116/21 58/109/21
f 60/111/16 59/110/16 58/109/16
f 60/113/17 61/140/17 62/114/17
f 57/108/18 63/115/18 62/114/18
f 62/117/19 61/141/19 58/109/19
f 59/118/20 60/142/20 63/119/20
f 65/121/21 72/129/21 66/122/21
f 65/121/16 67/123/16 68/124/16
f 70/126/17 69/143/17 68/127/17
f 70/126/18 71/128/18 66/122/18
f 68/130/19 67/123/19 66/122/19
f 65/132/20 69/144/20 70/133/20
o head
v 0.028935 1.033691 -0.471020
v 0.028935 1.006970 -0.591550
v -0.032793 1.006970 -0.591550
v 0.095808 1.033690 -0.471019
v 0.095808 1.008974 -0.582510
v 0.095808 1.006970 -0.591550
v 0.028935 0.993276 -0.653322
v -0.032793 0.993276 -0.653322
v -0.094522 1.006970 -0.591550
v -0.050797 1.047052 -0.410754
v -0.094522 1.047052 -0.410755
v -0.032793 1.060412 -0.350489
v 0.028935 1.060411 -0.350489
v -0.032793 1.047051 -0.410754
v 0.171250 0.690000 -0.562563
v 0.233750 1.002500 -0.562563
v 0.233750 0.690000 -0.562563
v 0.233750 1.002500 -0.312563
v 0.233750 0.690000 -0.312563
v 0.171250 1.002500 -0.312563
v 0.171250 0.690000 -0.312563
v 0.171250 1.002500 -0.562563
v 0.184375 0.634381 -0.628125
v 0.246875 0.946881 -0.628125
v 0.246875 0.634381 -0.628125
v 0.246875 0.946881 -0.378125
v 0.246875 0.634381 -0.378125
v 0.184375 0.946881 -0.378125
v 0.184375 0.634381 -0.378125
v 0.184375 0.946881 -0.628125
v -0.293750 0.696875 -0.590625
v -0.231250 0.821875 -0.590625
v -0.231250 0.696875 -0.590625
v -0.231250 0.821875 -0.403125
v -0.231250 0.696875 -0.403125
v -0.293750 0.821875 -0.403125
v -0.293750 0.696875 -0.403125
v -0.293750 0.821875 -0.590625
v -0.233750 0.690000 -0.562563
v -0.171250 1.002500 -0.562563
v -0.171250 0.690000 -0.562563
v -0.171250 1.002500 -0.312563
v -0.171250 0.690000 -0.312563
v -0.233750 1.002500 -0.312563
v -0.233750 0.690000 -0.312563
v -0.233750 1.002500 -0.562563
v -0.246875 0.634381 -0.628125
v -0.184375 0.946881 -0.628125
v -0.184375 0.634381 -0.628125
v -0.184375 0.946881 -0.378125
v -0.184375 0.634381 -0.378125
v -0.246875 0.946881 -0.378125
v -0.246875 0.634381 -0.378125
v -0.246875 0.946881 -0.628125
v -0.087500 0.682772 -0.893862
v 0.087500 0.794925 -0.902689
v 0.087500 0.682772 -0.893862
v 0.087500 0.818463 -0.603614
v 0.087500 0.706310 -0.594787
v -0.087500 0.818463 -0.603614
v -0.087500 0.706310 -0.594787
v -0.087500 0.794925 -0.902689
v -0.040625 0.717583 -0.910671
v 0.040625 0.798756 -0.914215
v 0.040625 0.717583 -0.910671
v 0.040625 0.802300 -0.833042
v 0.040625 0.721127 -0.829498
v -0.040625 0.802300 -0.833042
v -0.040625 0.721127 -0.829498
v -0.040625 0.798756 -0.914215
v -0.090510 0.828022 -0.691750
v -0.151242 0.892188 -0.689146
v -0.088824 0.890500 -0.691869
v -0.086098 0.890545 -0.629429
v -0.087784 0.828068 -0.629310
v -0.148516 0.892234 -0.626705
v -0.150202 0.829757 -0.626586
v -0.152927 0.829711 -0.689027
v -0.048813 0.826267 -0.694195
v -0.110760 0.891717 -0.691538
v -0.047094 0.889994 -0.694316
v -0.044314 0.890040 -0.630627
v -0.046033 0.826313 -0.630505
v -0.107980 0.891763 -0.627849
v -0.109699 0.828036 -0.627727
v -0.112479 0.827990 -0.691417
v 0.153072 0.829740 -0.689027
v 0.089022 0.890584 -0.691869
v 0.151441 0.892218 -0.689146
v 0.148716 0.892266 -0.626705
v 0.150347 0.829787 -0.626586
v 0.087927 0.828153 -0.629310
v 0.086296 0.890631 -0.629429
v 0.090653 0.828105 -0.691750
v 0.112623 0.828053 -0.691417
v 0.047292 0.890114 -0.694316
v 0.110960 0.891782 -0.691538
v 0.108179 0.891830 -0.627849
v 0.109843 0.828102 -0.627727
v 0.044512 0.890163 -0.630627
v 0.046175 0.826435 -0.630505
v 0.048956 0.826386 -0.694195
v -0.187500 0.628125 -0.687500
v 0.187500 1.003125 -0.687500
v 0.187500 0.628125 -0.687500
v 0.187500 1.003125 -0.312500
v 0.187500 0.628125 -0.312500
v -0.187500 1.003125 -0.312500
v -0.187500 0.628125 -0.312500
v -0.187500 1.003125 -0.687500
v -0.034375 0.676900 -0.639302
v 0.034375 0.727127 -0.760561
v 0.034375 0.676900 -0.639302
v 0.034375 0.906129 -0.686416
v 0.034375 0.855902 -0.565157
v -0.034375 0.906129 -0.686416
v -0.034375 0.855902 -0.565157
v -0.034375 0.727127 -0.760561
v 0.231250 0.696875 -0.590625
v 0.293750 0.821875 -0.590625
v 0.293750 0.696875 -0.590625
v 0.293750 0.821875 -0.403125
v 0.293750 0.696875 -0.403125
v 0.231250 0.821875 -0.403125
v 0.231250 0.696875 -0.403125
v 0.231250 0.821875 -0.590625
vn -0.0000 0.9763 -0.2164
vn 0.0001 0.9763 -0.2164
vn -0.0000 -0.0000 -1.0000
vn 1.0000 -0.0000 -0.0000
vn -0.0000 -0.0000 1.0000
vn -1.0000 -0.0000 -0.0000
vn -0.0000 1.0000 -0.0000
vn -0.0000 -1.0000 -0.0000
vn -0.0000 -0.0785 -0.9969
vn -0.0000 0.0785 0.9969
vn -0.0000 0.9969 -0.0785
vn -0.0000 -0.9969 0.0785
vn -0.0000 -0.0436 -0.9990
vn -0.0000 0.0436 0.9990
vn -0.0000 0.9990 -0.0436
vn -0.0000 -0.9990 0.0436
vn -0.0436 -0.0007 -0.9990
vn 0.9987 -0.0270 -0.0436
vn 0.0436 0.0007 0.9990
vn -0.9987 0.0270 0.0436
vn 0.0270 0.9996 -0.0019
vn -0.0270 -0.9996 0.0019
vn 0.0436 -0.0008 -0.9990
vn 0.9987 0.0262 0.0436
vn -0.0436 0.0008 0.9990
vn -0.9987 -0.0262 -0.0436
vn -0.0261 0.9997 -0.0019
vn 0.0261 -0.9997 0.0019
vn -0.0000 -0.9239 -0.3827
vn -0.0000 0.9239 0.3827
vn -0.0000 0.3827 -0.9239
vn -0.0000 -0.3827 0.9239
vn 0.9987 0.0261 0.0436
vn -0.9987 -0.0261 -0.0436
vt 0.287115 0.730084
vt 0.287115 0.766802
vt 0.268555 0.766802
vt 0.306641 0.730469
vt 0.306641 0.763672
vt 0.306641 0.766602
vt 0.287109 0.785156
vt 0.268555 0.785156
vt 0.250000 0.766602
vt 0.262695 0.712690
vt 0.250000 0.712891
vt 0.268555 0.694336
vt 0.287109 0.694336
vt 0.268555 0.712690
vt 0.220703 0.585938
vt 0.312933 0.603913
vt 0.220703 0.603516
vt 0.312500 0.678711
vt 0.220703 0.678711
vt 0.220703 0.493164
vt 0.312933 0.511617
vt 0.220703 0.511719
vt 0.312933 0.586425
vt 0.387695 0.603516
vt 0.387695 0.585938
vt 0.329102 0.638672
vt 0.403320 0.620117
vt 0.329102 0.620117
vt 0.421875 0.753906
vt 0.439845 0.661666
vt 0.439453 0.753906
vt 0.514648 0.662109
vt 0.514648 0.753906
vt 0.329102 0.753906
vt 0.347564 0.661666
vt 0.347656 0.753906
vt 0.422357 0.661666
vt 0.439453 0.586914
vt 0.421875 0.586914
vt 0.991211 0.875977
vt 0.972656 0.801758
vt 0.972656 0.875977
vt 0.082031 0.835938
vt 0.063482 0.873049
vt 0.063477 0.835938
vt 0.007812 0.873047
vt 0.007812 0.835938
vt 0.156250 0.835938
vt 0.137700 0.873049
vt 0.137695 0.835938
vt 0.082031 0.873049
vt 0.063477 0.928711
vt 0.082031 0.928711
vt 0.986328 0.654297
vt 0.930664 0.672852
vt 0.986328 0.672852
vt 0.643555 0.785156
vt 0.661530 0.692916
vt 0.661133 0.785156
vt 0.736328 0.693359
vt 0.736328 0.785156
vt 0.550781 0.785156
vt 0.569234 0.692916
vt 0.569336 0.785156
vt 0.644042 0.692916
vt 0.661133 0.618164
vt 0.643555 0.618164
vt 0.604492 0.652344
vt 0.530273 0.670898
vt 0.604492 0.670898
vt 0.896484 0.786133
vt 0.914459 0.693357
vt 0.914062 0.786133
vt 0.988281 0.693359
vt 0.988281 0.786133
vt 0.803711 0.786133
vt 0.822164 0.693357
vt 0.822266 0.786133
vt 0.895996 0.693357
vt 0.914062 0.619141
vt 0.896484 0.619141
vt 0.987305 0.157227
vt 0.968750 0.083008
vt 0.968750 0.157227
vt 0.987305 0.401367
vt 0.953398 0.348324
vt 0.987305 0.348633
vt 0.953125 0.262695
vt 0.987305 0.262695
vt 0.987305 0.539062
vt 0.953398 0.487484
vt 0.987305 0.487305
vt 0.953398 0.400879
vt 0.866211 0.348633
vt 0.866211 0.401367
vt 0.918945 0.570312
vt 0.866211 0.482422
vt 0.866211 0.570312
vt 0.333984 0.316406
vt 0.357430 0.291997
vt 0.357422 0.316406
vt 0.381836 0.291992
vt 0.381836 0.316406
vt 0.286133 0.316406
vt 0.310548 0.291997
vt 0.310547 0.316406
vt 0.333989 0.291997
vt 0.357422 0.267578
vt 0.333984 0.267578
vt 0.691406 0.965820
vt 0.666992 0.941406
vt 0.666992 0.965820
vt 0.007812 0.944336
vt 0.026372 0.925781
vt 0.026372 0.944341
vt 0.026367 0.962891
vt 0.007812 0.962891
vt 0.007812 0.888672
vt 0.026372 0.907232
vt 0.007812 0.907227
vt 0.007812 0.925781
vt 0.044922 0.944336
vt 0.044922 0.925781
vt 0.261719 0.888672
vt 0.280273 0.870117
vt 0.261719 0.870117
vt 0.209961 0.291992
vt 0.229494 0.310550
vt 0.209965 0.310550
vt 0.191406 0.310547
vt 0.191406 0.291992
vt 0.266602 0.291992
vt 0.248043 0.310550
vt 0.248047 0.291992
vt 0.229492 0.291992
vt 0.229492 0.330078
vt 0.875000 0.672852
vt 0.856445 0.654297
vt 0.856445 0.672852
vt 0.243164 0.835938
vt 0.224608 0.854497
vt 0.243170 0.854497
vt 0.261722 0.854497
vt 0.261719 0.835938
vt 0.280273 0.835938
vt 0.280273 0.854492
vt 0.206055 0.835938
vt 0.224609 0.835938
vt 0.243164 0.873047
vt 0.224609 0.873047
vt 0.295898 0.854492
vt 0.314453 0.835938
vt 0.314453 0.854492
vt 0.333984 0.184570
vt 0.352542 0.204105
vt 0.352542 0.184574
vt 0.352542 0.166012
vt 0.333984 0.166016
vt 0.352539 0.147461
vt 0.333984 0.147461
vt 0.333984 0.222656
vt 0.333984 0.204102
vt 0.372070 0.204102
vt 0.784180 0.122070
vt 0.802734 0.103516
vt 0.802734 0.122070
vt 0.453125 0.348633
vt 0.343264 0.460444
vt 0.343750 0.348633
vt 0.232422 0.459961
vt 0.232422 0.348633
vt 0.675781 0.348633
vt 0.564939 0.460444
vt 0.564453 0.348633
vt 0.453131 0.460444
vt 0.343750 0.571289
vt 0.453125 0.571289
vt 0.957031 0.913086
vt 0.845703 0.801758
vt 0.845703 0.913086
vt 0.752930 0.840820
vt 0.771854 0.801759
vt 0.771484 0.840820
vt 0.830078 0.801758
vt 0.830078 0.840820
vt 0.674805 0.840820
vt 0.694223 0.801759
vt 0.694336 0.840820
vt 0.752446 0.801759
vt 0.771484 0.742188
vt 0.752930 0.742188
vt 0.202148 0.533203
vt 0.182617 0.473633
vt 0.182617 0.533203
vt 0.171875 0.928711
vt 0.190431 0.891600
vt 0.190430 0.928711
vt 0.246094 0.891602
vt 0.246094 0.928711
vt 0.097656 0.928711
vt 0.116207 0.891600
vt 0.116211 0.928711
vt 0.171880 0.891600
vt 0.190430 0.835938
vt 0.171875 0.835938
vt 0.643555 0.476562
vt 0.662109 0.532227
vt 0.662109 0.476562
vt 0.312500 0.493164
vt 0.403320 0.638672
vt 0.329102 0.662109
vt 0.991211 0.801758
vt 0.156250 0.873047
vt 0.930664 0.654297
vt 0.550781 0.693359
vt 0.530273 0.652344
vt 0.803711 0.693359
vt 0.987305 0.083008
vt 0.953125 0.539062
vt 0.918945 0.482422
vt 0.286133 0.291992
vt 0.691406 0.941406
vt 0.026367 0.888672
vt 0.280273 0.888672
vt 0.266602 0.310547
vt 0.209961 0.330078
vt 0.875000 0.654297
vt 0.206055 0.854492
vt 0.295898 0.835938
vt 0.352539 0.222656
vt 0.372070 0.184570
vt 0.784180 0.103516
vt 0.675781 0.459961
vt 0.957031 0.801758
vt 0.674805 0.801758
vt 0.202148 0.473633
vt 0.097656 0.891602
vt 0.643555 0.532227
s 0
usemtl m_f5311e67-2be6-6d39-33ab-b50e2621a823
f 73/145/23 74/146/23 75/147/23
f 73/145/23 76/148/23 77/149/23
f 77/149/23 78/150/23 74/146/23
f 74/146/23 79/151/23 75/147/23
f 79/151/23 80/152/23 75/147/23
f 75/147/23 81/153/23 82/154/23
f 81/153/23 83/155/23 82/154/23
f 73/145/23 77/149/23 74/146/23
f 84/156/23 85/157/23 86/158/23
f 85/157/23 73/145/23 86/158/23
f 82/154/24 86/158/24 73/145/24
f 75/147/23 82/154/23 73/145/23
usemtl m_76b7eb19-3c8e-a884-7741-b0af6ba8c145
f 87/159/25 88/160/25 89/161/25
f 89/161/26 90/162/26 91/163/26
f 91/164/27 92/165/27 93/166/27
f 93/166/28 94/167/28 87/159/28
f 90/168/29 94/167/29 92/169/29
f 89/170/30 93/171/30 87/172/30
f 95/173/25 96/174/25 97/175/25
f 97/175/26 98/176/26 99/177/26
f 99/178/27 100/179/27 101/180/27
f 101/180/28 102/181/28 95/173/28
f 98/182/29 102/181/29 100/183/29
f 97/184/30 101/185/30 95/186/30
f 103/187/25 104/188/25 105/189/25
f 105/189/26 106/190/26 107/191/26
f 107/192/27 108/193/27 109/194/27
f 109/194/28 110/195/28 103/187/28
f 106/196/29 110/195/29 108/197/29
f 105/198/30 109/199/30 103/200/30
f 111/201/25 112/202/25 113/203/25
f 113/203/26 114/204/26 115/205/26
f 115/206/27 116/207/27 117/208/27
f 117/208/28 118/209/28 111/201/28
f 114/210/29 118/209/29 116/211/29
f 113/212/30 117/213/30 111/214/30
f 119/215/25 120/216/25 121/217/25
f 121/217/26 122/218/26 123/219/26
f 123/220/27 124/221/27 125/222/27
f 125/222/28 126/223/28 119/215/28
f 122/224/29 126/223/29 124/225/29
f 121/226/30 125/227/30 119/228/30
f 127/229/31 128/230/31 129/231/31
f 129/231/26 130/232/26 131/233/26
f 131/234/32 132/235/32 133/236/32
f 133/236/28 134/237/28 127/229/28
f 130/238/33 134/237/33 132/239/33
f 129/240/34 133/241/34 127/242/34
f 135/243/35 136/244/35 137/245/35
f 137/245/26 138/246/26 139/247/26
f 139/248/36 140/249/36 141/250/36
f 141/250/28 142/251/28 135/243/28
f 138/252/37 142/251/37 140/253/37
f 137/254/38 141/255/38 135/256/38
f 143/257/39 144/258/39 145/259/39
f 143/257/40 146/260/40 147/261/40
f 147/262/41 148/263/41 149/264/41
f 149/264/42 144/258/42 150/265/42
f 146/266/43 144/258/43 148/267/43
f 150/268/44 147/269/44 149/270/44
f 151/271/39 152/272/39 153/273/39
f 151/271/40 154/274/40 155/275/40
f 155/276/41 156/277/41 157/278/41
f 157/278/42 152/272/42 158/279/42
f 156/280/43 153/273/43 152/272/43
f 151/281/44 157/282/44 158/283/44
f 159/284/45 160/285/45 161/286/45
f 159/284/46 162/287/46 163/288/46
f 164/289/47 162/287/47 165/290/47
f 164/291/48 160/285/48 166/292/48
f 162/293/49 160/285/49 165/294/49
f 159/295/50 164/296/50 166/297/50
f 167/298/45 168/299/45 169/300/45
f 167/298/46 170/301/46 171/302/46
f 171/302/47 172/303/47 173/304/47
f 173/305/48 168/299/48 174/306/48
f 172/307/49 169/300/49 168/299/49
f 167/308/50 173/309/50 174/310/50
f 175/311/25 176/312/25 177/313/25
f 177/313/26 178/314/26 179/315/26
f 179/316/27 180/317/27 181/318/27
f 181/318/28 182/319/28 175/311/28
f 178/320/29 182/319/29 180/321/29
f 177/322/30 181/323/30 175/324/30
f 183/325/51 184/326/51 185/327/51
f 185/327/26 186/328/26 187/329/26
f 187/330/52 188/331/52 189/332/52
f 183/325/28 188/331/28 190/333/28
f 186/334/53 190/333/53 188/335/53
f 185/336/54 189/337/54 183/338/54
f 191/339/25 192/340/25 193/341/25
f 193/341/26 194/342/26 195/343/26
f 195/344/27 196/345/27 197/346/27
f 197/346/28 198/347/28 191/339/28
f 194/348/29 198/347/29 196/349/29
f 193/350/30 197/351/30 191/352/30
f 87/159/25 94/167/25 88/160/25
f 89/161/26 88/160/26 90/162/26
f 91/164/27 90/353/27 92/165/27
f 93/166/28 92/165/28 94/167/28
f 90/168/29 88/160/29 94/167/29
f 89/170/30 91/354/30 93/171/30
f 95/173/25 102/181/25 96/174/25
f 97/175/26 96/174/26 98/176/26
f 99/178/27 98/355/27 100/179/27
f 101/180/28 100/179/28 102/181/28
f 98/182/29 96/174/29 102/181/29
f 97/184/30 99/356/30 101/185/30
f 103/187/25 110/195/25 104/188/25
f 105/189/26 104/188/26 106/190/26
f 107/192/27 106/357/27 108/193/27
f 109/194/28 108/193/28 110/195/28
f 106/196/29 104/188/29 110/195/29
f 105/198/30 107/358/30 109/199/30
f 111/201/25 118/209/25 112/202/25
f 113/203/26 112/202/26 114/204/26
f 115/206/27 114/359/27 116/207/27
f 117/208/28 116/207/28 118/209/28
f 114/210/29 112/202/29 118/209/29
f 113/212/30 115/360/30 117/213/30
f 119/215/25 126/223/25 120/216/25
f 121/217/26 120/216/26 122/218/26
f 123/220/27 122/361/27 124/221/27
f 125/222/28 124/221/28 126/223/28
f 122/224/29 120/216/29 126/223/29
f 121/226/30 123/362/30 125/227/30
f 127/229/31 134/237/31 128/230/31
f 129/231/26 128/230/26 130/232/26
f 131/234/32 130/363/32 132/235/32
f 133/236/28 132/235/28 134/237/28
f 130/238/33 128/230/33 134/237/33
f 129/240/34 131/364/34 133/241/34
f 135/243/35 142/251/35 136/244/35
f 137/245/26 136/244/26 138/246/26
f 139/248/36 138/365/36 140/249/36
f 141/250/28 140/249/28 142/251/28
f 138/252/37 136/244/37 142/251/37
f 137/254/38 139/366/38 141/255/38
f 143/257/39 150/265/39 144/258/39
f 143/257/40 145/259/40 146/260/40
f 147/262/41 146/367/41 148/263/41
f 149/264/42 148/263/42 144/258/42
f 146/266/43 145/259/43 144/258/43
f 150/268/44 143/368/44 147/269/44
f 151/271/39 158/279/39 152/272/39
f 151/271/40 153/273/40 154/274/40
f 155/276/41 154/369/41 156/277/41
f 157/278/42 156/277/42 152/272/42
f 156/280/43 154/370/43 153/273/43
f 151/281/44 155/371/44 157/282/44
f 159/284/45 166/292/45 160/285/45
f 159/284/46 161/286/46 162/287/46
f 164/289/47 163/288/47 162/287/47
f 164/291/48 165/372/48 160/285/48
f 162/293/49 161/286/49 160/285/49
f 159/295/50 163/373/50 164/296/50
f 167/298/45 174/306/45 168/299/45
f 167/298/55 169/300/55 170/301/55
f 171/302/47 170/301/47 172/303/47
f 173/305/56 172/374/56 168/299/56
f 172/307/49 170/375/49 169/300/49
f 167/308/50 171/376/50 173/309/50
f 175/311/25 182/319/25 176/312/25
f 177/313/26 176/312/26 178/314/26
f 179/316/27 178/377/27 180/317/27
f 181/318/28 180/317/28 182/319/28
f 178/320/29 176/312/29 182/319/29
f 177/322/30 179/378/30 181/323/30
f 183/325/51 190/333/51 184/326/51
f 185/327/26 184/326/26 186/328/26
f 187/330/52 186/379/52 188/331/52
f 183/325/28 189/332/28 188/331/28
f 186/334/53 184/326/53 190/333/53
f 185/336/54 187/380/54 189/337/54
f 191/339/25 198/347/25 192/340/25
f 193/341/26 192/340/26 194/342/26
f 195/344/27 194/381/27 196/345/27
f 197/346/28 196/345/28 198/347/28
f 194/348/29 192/340/29 198/347/29
f 193/350/30 195/382/30 197/351/30
o jaw
v -0.078125 0.626966 -0.878816
v 0.078125 0.658119 -0.881268
v 0.078125 0.626966 -0.878816
v 0.078125 0.649032 -0.598433
v 0.078125 0.680186 -0.600885
v -0.078125 0.680186 -0.600885
v -0.078125 0.649032 -0.598433
v -0.078125 0.658119 -0.881268
v -0.084375 0.654575 -0.887642
v 0.084375 0.698190 -0.891075
v 0.084375 0.654575 -0.887642
v 0.084375 0.677622 -0.594797
v 0.084375 0.721237 -0.598230
v -0.084375 0.721237 -0.598230
v -0.084375 0.677622 -0.594797
v -0.084375 0.698190 -0.891075
vn -0.0000 -0.0785 -0.9969
vn 1.0000 -0.0000 -0.0000
vn -0.0000 0.0785 0.9969
vn -1.0000 -0.0000 -0.0000
vn -0.0000 0.9969 -0.0785
vn -0.0000 -0.9969 0.0785
vt 0.540039 0.886719
vt 0.583619 0.873202
vt 0.583984 0.886719
vt 0.654297 0.886719
vt 0.654297 0.873047
vt 0.427734 0.886719
vt 0.470333 0.873202
vt 0.470703 0.886719
vt 0.540054 0.873202
vt 0.583984 0.800781
vt 0.540039 0.800781
vt 0.819336 0.977539
vt 0.898438 0.928711
vt 0.819336 0.928711
vt 0.187500 0.820312
vt 0.234379 0.804692
vt 0.234375 0.820312
vt 0.316406 0.820312
vt 0.316406 0.804688
vt 0.057617 0.820312
vt 0.105470 0.804692
vt 0.105469 0.820312
vt 0.187500 0.804692
vt 0.234375 0.722656
vt 0.187500 0.722656
vt 0.934570 0.554688
vt 0.986328 0.638672
vt 0.986328 0.554688
vt 0.427734 0.873047
vt 0.898438 0.977539
vt 0.057617 0.804688
vt 0.934570 0.638672
s 0
usemtl m_76b7eb19-3c8e-a884-7741-b0af6ba8c145
f 199/383/57 200/384/57 201/385/57
f 202/386/58 200/384/58 203/387/58
f 202/388/59 204/389/59 205/390/59
f 205/390/60 206/391/60 199/383/60
f 203/392/61 206/391/61 204/393/61
f 201/394/62 205/395/62 199/396/62
f 207/397/57 208/398/57 209/399/57
f 210/400/58 208/398/58 211/401/58
f 210/402/59 212/403/59 213/404/59
f 213/404/60 214/405/60 207/397/60
f 211/406/61 214/405/61 212/407/61
f 209/408/62 213/409/62 207/410/62
f 199/383/57 206/391/57 200/384/57
f 202/386/58 201/385/58 200/384/58
f 202/388/59 203/411/59 204/389/59
f 205/390/60 204/389/60 206/391/60
f 203/392/61 200/384/61 206/391/61
f 201/394/62 202/412/62 205/395/62
f 207/397/57 214/405/57 208/398/57
f 210/400/58 209/399/58 208/398/58
f 210/402/59 211/413/59 212/403/59
f 213/404/60 212/403/60 214/405/60
f 211/406/61 208/398/61 214/405/61
f 209/408/62 210/414/62 213/409/62
o leg_bl
v -0.162500 0.000000 0.418750
v -0.025000 0.512500 0.418750
v -0.025000 0.000000 0.418750
v -0.025000 0.512500 0.556250
v -0.025000 0.000000 0.556250
v -0.162500 0.512500 0.556250
v -0.162500 0.000000 0.556250
v -0.162500 0.512500 0.418750
v -0.162500 0.259232 0.284232
v -0.025000 0.521732 0.284232
v -0.025000 0.259232 0.284232
v -0.025000 0.521732 0.421732
v -0.025000 0.259232 0.421732
v -0.162500 0.521732 0.421732
v -0.162500 0.259232 0.421732
v -0.162500 0.521732 0.284232
vn -0.0000 -0.0000 -1.0000
vn 1.0000 -0.0000 -0.0000
vn -0.0000 -0.0000 1.0000
vn -1.0000 -0.0000 -0.0000
vn -0.0000 1.0000 -0.0000
vn -0.0000 -1.0000 -0.0000
vt 0.691406 0.426758
vt 0.849804 0.466056
vt 0.691406 0.465820
vt 0.849609 0.504883
vt 0.691406 0.504883
vt 0.691406 0.348633
vt 0.849804 0.387449
vt 0.691406 0.387695
vt 0.849804 0.427240
vt 0.888672 0.465820
vt 0.888672 0.426758
vt 0.955078 0.969727
vt 0.914062 0.928711
vt 0.914062 0.969727
vt 0.864258 0.007812
vt 0.823975 0.087240
vt 0.824219 0.007812
vt 0.784180 0.086914
vt 0.784180 0.007812
vt 0.943359 0.007812
vt 0.903565 0.087240
vt 0.903320 0.007812
vt 0.863770 0.087240
vt 0.824219 0.126953
vt 0.864258 0.126953
vt 0.651367 0.943359
vt 0.610352 0.902344
vt 0.610352 0.943359
vt 0.849609 0.348633
vt 0.955078 0.928711
vt 0.943359 0.086914
vt 0.651367 0.902344
s 0
usemtl m_76b7eb19-3c8e-a884-7741-b0af6ba8c145
f 215/415/63 216/416/63 217/417/63
f 217/417/64 218/418/64 219/419/64
f 219/420/65 220/421/65 221/422/65
f 221/422/66 222/423/66 215/415/66
f 218/424/67 222/423/67 220/425/67
f 217/426/68 221/427/68 215/428/68
f 223/429/63 224/430/63 225/431/63
f 225/431/64 226/432/64 227/433/64
f 227/434/65 228/435/65 229/436/65
f 229/436/66 230/437/66 223/429/66
f 226/438/67 230/437/67 228/439/67
f 225/440/68 229/441/68 223/442/68
f 215/415/63 222/423/63 216/416/63
f 217/417/64 216/416/64 218/418/64
f 219/420/65 218/443/65 220/421/65
f 221/422/66 220/421/66 222/423/66
f 218/424/67 216/416/67 222/423/67
f 217/426/68 219/444/68 221/427/68
f 223/429/63 230/437/63 224/430/63
f 225/431/64 224/430/64 226/432/64
f 227/434/65 226/445/65 228/435/65
f 229/436/66 228/435/66 230/437/66
f 226/438/67 224/430/67 230/437/67
f 225/440/68 227/446/68 229/441/68
o leg_br
v 0.025000 0.000000 0.418750
v 0.162500 0.512500 0.418750
v 0.162500 0.000000 0.418750
v 0.162500 0.512500 0.556250
v 0.162500 0.000000 0.556250
v 0.025000 0.512500 0.556250
v 0.025000 0.000000 0.556250
v 0.025000 0.512500 0.418750
v 0.025000 0.259232 0.284232
v 0.162500 0.521732 0.284232
v 0.162500 0.259232 0.284232
v 0.162500 0.521732 0.421732
v 0.162500 0.259232 0.421732
v 0.025000 0.521732 0.421732
v 0.025000 0.259232 0.421732
v 0.025000 0.521732 0.284232
vn -0.0000 -0.0000 -1.0000
vn 1.0000 -0.0000 -0.0000
vn -0.0000 -0.0000 1.0000
vn -1.0000 -0.0000 -0.0000
vn -0.0000 1.0000 -0.0000
vn -0.0000 -1.0000 -0.0000
vt 0.682617 0.598633
vt 0.840814 0.638665
vt 0.682617 0.638672
vt 0.840820 0.677734
vt 0.682617 0.677734
vt 0.682617 0.520508
vt 0.840814 0.559567
vt 0.682617 0.559570
vt 0.840814 0.598626
vt 0.879883 0.638672
vt 0.879883 0.598633
vt 0.271484 0.987305
vt 0.230469 0.946289
vt 0.230469 0.987305
vt 0.412109 0.769531
vt 0.372074 0.849609
vt 0.372070 0.769531
vt 0.332031 0.849609
vt 0.332031 0.769531
vt 0.491211 0.769531
vt 0.451174 0.849609
vt 0.451172 0.769531
vt 0.412114 0.849609
vt 0.372070 0.889648
vt 0.412109 0.889648
vt 0.101562 0.985352
vt 0.060547 0.944336
vt 0.060547 0.985352
vt 0.840820 0.520508
vt 0.271484 0.946289
vt 0.491211 0.849609
vt 0.101562 0.944336
s 0
usemtl m_76b7eb19-3c8e-a884-7741-b0af6ba8c145
f 231/447/69 232/448/69 233/449/69
f 233/449/70 234/450/70 235/451/70
f 235/452/71 236/453/71 237/454/71
f 237/454/72 238/455/72 231/447/72
f 234/456/73 238/455/73 236/457/73
f 233/458/74 237/459/74 231/460/74
f 239/461/69 240/462/69 241/463/69
f 241/463/70 242/464/70 243/465/70
f 243/466/71 244/467/71 245/468/71
f 245/468/72 246/469/72 239/461/72
f 242/470/73 246/469/73 244/471/73
f 241/472/74 245/473/74 239/474/74
f 231/447/69 238/455/69 232/448/69
f 233/449/70 232/448/70 234/450/70
f 235/452/71 234/475/71 236/453/71
f 237/454/72 236/453/72 238/455/72
f 234/456/73 232/448/73 238/455/73
f 233/458/74 235/476/74 237/459/74
f 239/461/69 246/469/69 240/462/69
f 241/463/70 240/462/70 242/464/70
f 243/466/71 242/477/71 244/467/71
f 245/468/72 244/467/72 246/469/72
f 242/470/73 240/462/73 246/469/73
f 241/472/74 243/478/74 245/473/74
o leg_fl
v -0.162500 -0.000000 -0.318750
v -0.025000 0.512500 -0.318750
v -0.025000 -0.000000 -0.318750
v -0.025000 0.512500 -0.181250
v -0.025000 -0.000000 -0.181250
v -0.162500 0.512500 -0.181250
v -0.162500 -0.000000 -0.181250
v -0.162500 0.512500 -0.318750
vn -0.0000 -0.0000 -1.0000
vn 1.0000 -0.0000 -0.0000
vn -0.0000 -0.0000 1.0000
vn -1.0000 -0.0000 -0.0000
vn -0.0000 1.0000 -0.0000
vn -0.0000 -1.0000 -0.0000
vt 0.469727 0.554688
vt 0.627923 0.594720
vt 0.469727 0.594727
vt 0.627930 0.633789
vt 0.469727 0.633789
vt 0.469727 0.476562
vt 0.627923 0.515622
vt 0.469727 0.515625
vt 0.627923 0.554691
vt 0.666992 0.594727
vt 0.666992 0.554688
vt 0.158203 0.985352
vt 0.117188 0.944336
vt 0.117188 0.985352
vt 0.627930 0.476562
vt 0.158203 0.944336
s 0
usemtl m_76b7eb19-3c8e-a884-7741-b0af6ba8c145
f 247/479/75 248/480/75 249/481/75
f 249/481/76 250/482/76 251/483/76
f 251/484/77 252/485/77 253/486/77
f 253/486/78 254/487/78 247/479/78
f 250/488/79 254/487/79 252/489/79
f 249/490/80 253/491/80 247/492/80
f 247/479/75 254/487/75 248/480/75
f 249/481/76 248/480/76 250/482/76
f 251/484/77 250/493/77 252/485/77
f 253/486/78 252/485/78 254/487/78
f 250/488/79 248/480/79 254/487/79
f 249/490/80 251/494/80 253/491/80
o leg_fr
v 0.025000 -0.000000 -0.318750
v 0.162500 0.512500 -0.318750
v 0.162500 -0.000000 -0.318750
v 0.162500 0.512500 -0.181250
v 0.162500 -0.000000 -0.181250
v 0.025000 0.512500 -0.181250
v 0.025000 -0.000000 -0.181250
v 0.025000 0.512500 -0.318750
vn -0.0000 -0.0000 -1.0000
vn 1.0000 -0.0000 -0.0000
vn -0.0000 -0.0000 1.0000
vn -1.0000 -0.0000 -0.0000
vn -0.0000 1.0000 -0.0000
vn -0.0000 -1.0000 -0.0000
vt 0.007812 0.551758
vt 0.166210 0.591064
vt 0.007812 0.590820
vt 0.166016 0.629883
vt 0.007812 0.629883
vt 0.007812 0.473633
vt 0.166210 0.512452
vt 0.007812 0.512695
vt 0.166210 0.552245
vt 0.205078 0.590820
vt 0.205078 0.551758
vt 0.214844 0.985352
vt 0.173828 0.944336
vt 0.173828 0.985352
vt 0.166016 0.473633
vt 0.214844 0.944336
s 0
usemtl m_f5311e67-2be6-6d39-33ab-b50e2621a823
f 255/495/81 256/496/81 257/497/81
f 257/497/82 258/498/82 259/499/82
f 259/500/83 260/501/83 261/502/83
f 261/502/84 262/503/84 255/495/84
f 258/504/85 262/503/85 260/505/85
f 257/506/86 261/507/86 255/508/86
f 255/495/81 262/503/81 256/496/81
f 257/497/82 256/496/82 258/498/82
f 259/500/83 258/509/83 260/501/83
f 261/502/84 260/501/84 262/503/84
f 258/504/85 256/496/85 262/503/85
f 257/506/86 259/510/86 261/507/86
o mane
v -0.275000 0.437500 0.025000
v 0.275000 0.437500 -0.400000
v 0.275000 0.437500 0.025000
v 0.275000 0.925000 -0.400000
v 0.275000 0.925000 0.025000
v -0.275000 0.925000 -0.400000
v -0.275000 0.925000 0.025000
v -0.275000 0.437500 -0.400000
vn -0.0000 -1.0000 -0.0000
vn 1.0000 -0.0000 -0.0000
vn -0.0000 1.0000 -0.0000
vn -1.0000 -0.0000 -0.0000
vn -0.0000 -0.0000 -1.0000
vn -0.0000 -0.0000 1.0000
vt 0.318359 0.007812
vt 0.151889 0.131394
vt 0.152344 0.007812
vt 0.007812 0.131836
vt 0.007812 0.007812
vt 0.628906 0.007812
vt 0.463408 0.131394
vt 0.463867 0.007812
vt 0.318364 0.131394
vt 0.152344 0.276367
vt 0.318359 0.276367
vt 0.007812 0.645508
vt 0.171875 0.789062
vt 0.171875 0.645508
vt 0.628906 0.131836
vt 0.007812 0.789062
s 0
usemtl m_76b7eb19-3c8e-a884-7741-b0af6ba8c145
f 263/511/87 264/512/87 265/513/87
f 265/513/88 266/514/88 267/515/88
f 267/516/89 268/517/89 269/518/89
f 269/518/90 270/519/90 263/511/90
f 266/520/91 270/519/91 268/521/91
f 265/522/92 269/523/92 263/524/92
f 263/511/87 270/519/87 264/512/87
f 265/513/88 264/512/88 266/514/88
f 267/516/89 266/525/89 268/517/89
f 269/518/90 268/517/90 270/519/90
f 266/520/91 264/512/91 270/519/91
f 265/522/92 267/526/92 269/523/92
o tail
v -0.075000 0.168750 0.550000
v 0.075000 0.693750 0.550000
v 0.075000 0.168750 0.550000
v 0.075000 0.693750 0.700000
v 0.075000 0.168750 0.700000
v -0.075000 0.693750 0.700000
v -0.075000 0.168750 0.700000
v -0.075000 0.693750 0.550000
vn -0.0000 -0.0000 -1.0000
vn 1.0000 -0.0000 -0.0000
vn -0.0000 -0.0000 1.0000
vn -1.0000 -0.0000 -0.0000
vn -0.0000 1.0000 -0.0000
vn -0.0000 -1.0000 -0.0000
vt 0.007812 0.375000
vt 0.175002 0.416263
vt 0.007812 0.416016
vt 0.174805 0.458008
vt 0.007812 0.458008
vt 0.007812 0.291992
vt 0.175002 0.333737
vt 0.007812 0.333984
vt 0.175002 0.375482
vt 0.216797 0.416016
vt 0.216797 0.375000
vt 0.643555 0.844727
vt 0.599609 0.800781
vt 0.599609 0.844727
vt 0.174805 0.291992
vt 0.643555 0.800781
s 0
usemtl m_76b7eb19-3c8e-a884-7741-b0af6ba8c145
f 271/527/93 272/528/93 273/529/93
f 273/529/94 274/530/94 275/531/94
f 275/532/95 276/533/95 277/534/95
f 277/534/96 278/535/96 271/527/96
f 274/536/97 278/535/97 276/537/97
f 273/538/98 277/539/98 271/540/98
f 271/527/93 278/535/93 272/528/93
f 273/529/94 272/528/94 274/530/94
f 275/532/95 274/541/95 276/533/95
f 277/534/96 276/533/96 278/535/96
f 274/536/97 272/528/97 278/535/97
f 273/538/98 275/542/98 277/539/98
