# Blender 4.0.2
# www.blender.org
mtllib gray_wolf.mtl
o body
v 0.212500 0.468750 0.596875
v -0.212500 0.468750 0.596875
v -0.212500 0.468750 -0.015625
v 0.212500 0.468750 -0.015625
v 0.212500 0.893750 0.596875
v 0.212500 0.893750 -0.015625
v -0.212500 0.893750 0.596875
v -0.212500 0.893750 -0.015625
vn -0.0000 -1.0000 -0.0000
vn 1.0000 -0.0000 -0.0000
vn -0.0000 1.0000 -0.0000
vn -1.0000 -0.0000 -0.0000
vn -0.0000 -0.0000 -1.0000
vn -0.0000 -0.0000 1.0000
vt 0.439500 0.187500
vt 0.436500 0.468750
vt 0.436500 0.187500
vt 0.433500 0.468750
vt 0.433500 0.187500
vt 0.445500 0.187500
vt 0.442500 0.468750
vt 0.442500 0.187500
vt 0.439500 0.468750
vt 0.436500 0.656250
vt 0.439500 0.656250
vt 0.442500 0.656250
vt 0.445500 0.468750
s 0
usemtl m_7615ebdc-3ef7-44c0-8929-a5b31ab15ed8
f 2/1/1 4/2/1 1/3/1
f 1/3/2 6/4/2 5/5/2
f 5/6/3 8/7/3 7/8/3
f 7/8/4 3/9/4 2/1/4
f 6/10/5 3/9/5 8/11/5
f 1/9/6 7/12/6 2/7/6
f 2/1/1 3/9/1 4/2/1
f 1/3/2 4/2/2 6/4/2
f 5/6/3 6/13/3 8/7/3
f 7/8/4 8/7/4 3/9/4
f 6/10/5 4/2/5 3/9/5
f 1/9/6 5/11/6 7/12/6
o ear_left
v -0.095128 0.968425 -0.577914
v -0.230992 0.963680 -0.514522
v -0.236227 1.113589 -0.514522
v -0.100363 1.118333 -0.577914
v -0.058172 0.969715 -0.498612
v -0.063407 1.119624 -0.498612
v -0.194035 0.964971 -0.435220
v -0.199270 1.114879 -0.435220
v -0.115453 0.986476 -0.574967
v -0.217351 0.982918 -0.527422
v -0.221277 1.095350 -0.527422
v -0.119380 1.098908 -0.574967
v -0.094335 0.987214 -0.529651
v -0.098262 1.099645 -0.529651
v -0.196233 0.983656 -0.482107
v -0.200159 1.096087 -0.482107
v -0.148734 1.091176 -0.560849
v -0.194022 1.089595 -0.539718
v -0.195767 1.139564 -0.539718
v -0.150479 1.141146 -0.560849
v -0.127616 1.091914 -0.515534
v -0.129361 1.141883 -0.515534
v -0.172904 1.090332 -0.494403
v -0.174649 1.140302 -0.494403
v -0.128825 1.074191 -0.563851
v -0.206947 1.071463 -0.527400
v -0.209957 1.157660 -0.527400
v -0.131836 1.160388 -0.563851
v -0.092397 1.075463 -0.485682
v -0.095407 1.161660 -0.485682
v -0.170518 1.072735 -0.449231
v -0.173528 1.158932 -0.449231
vn -0.4224 -0.0147 -0.9063
vn 0.9058 0.0316 -0.4226
vn 0.4224 0.0147 0.9063
vn -0.9058 -0.0316 0.4226
vn -0.0349 0.9994 -0.0000
vn 0.0349 -0.9994 -0.0000
vt 0.423500 0.812500
vt 0.424500 0.875000
vt 0.424500 0.812500
vt 0.425000 0.812500
vt 0.425000 0.875000
vt 0.426000 0.875000
vt 0.426000 0.812500
vt 0.423000 0.812500
vt 0.423500 0.875000
vt 0.424500 0.906250
vt 0.423500 0.906250
vt 0.425500 0.906250
vt 0.432000 0.906250
vt 0.433000 0.968750
vt 0.433000 0.906250
vt 0.433500 0.906250
vt 0.433500 0.968750
vt 0.434500 0.968750
vt 0.434500 0.906250
vt 0.431500 0.968750
vt 0.432000 0.968750
vt 0.432000 1.000000
vt 0.434000 0.968750
vt 0.433000 1.000000
vt 0.095500 0.937500
vt 0.096000 0.968750
vt 0.095500 0.968750
vt 0.095000 0.968750
vt 0.095000 0.937500
vt 0.097000 0.937500
vt 0.096500 0.968750
vt 0.096500 0.937500
vt 0.096000 0.937500
vt 0.096000 1.000000
vt 0.096500 1.000000
vt 0.423500 0.937500
vt 0.424000 0.968750
vt 0.423500 0.968750
vt 0.423000 0.937500
vt 0.423000 0.968750
vt 0.425000 0.937500
vt 0.424500 0.968750
vt 0.424500 0.937500
vt 0.424000 0.937500
vt 0.424000 1.000000
vt 0.424500 1.000000
vt 0.423000 0.875000
vt 0.425500 0.875000
vt 0.431500 0.906250
vt 0.434000 1.000000
vt 0.097000 0.968750
vt 0.095500 1.000000
vt 0.425000 0.968750
vt 0.423500 1.000000
s 0
usemtl m_7615ebdc-3ef7-44c0-8929-a5b31ab15ed8
f 10/14/7 12/15/7 9/16/7
f 13/17/8 12/15/8 14/18/8
f 13/17/9 16/19/9 15/20/9
f 15/21/10 11/22/10 10/14/10
f 14/23/11 11/22/11 16/24/11
f 10/15/12 13/25/12 15/23/12
f 18/26/7 20/27/7 17/28/7
f 21/29/8 20/27/8 22/30/8
f 21/29/9 24/31/9 23/32/9
f 18/26/10 24/33/10 19/34/10
f 24/35/11 20/27/11 19/34/11
f 17/36/12 23/37/12 18/27/12
f 25/38/7 27/39/7 28/40/7
f 25/38/8 30/41/8 29/42/8
f 29/43/9 32/44/9 31/45/9
f 31/45/10 27/39/10 26/46/10
f 32/47/11 28/40/11 27/39/11
f 25/39/12 31/48/12 26/44/12
f 33/49/7 35/50/7 36/51/7
f 37/52/8 36/51/8 38/53/8
f 37/54/9 40/55/9 39/56/9
f 39/56/10 35/50/10 34/57/10
f 40/58/11 36/51/11 35/50/11
f 33/50/12 39/59/12 34/55/12
f 10/14/7 11/22/7 12/15/7
f 13/17/8 9/16/8 12/15/8
f 13/17/9 14/18/9 16/19/9
f 15/21/10 16/60/10 11/22/10
f 14/23/11 12/15/11 11/22/11
f 10/15/12 9/61/12 13/25/12
f 18/26/7 19/34/7 20/27/7
f 21/29/8 17/28/8 20/27/8
f 21/29/9 22/30/9 24/31/9
f 18/26/10 23/62/10 24/33/10
f 24/35/11 22/37/11 20/27/11
f 17/36/12 21/63/12 23/37/12
f 25/38/7 26/46/7 27/39/7
f 25/38/8 28/40/8 30/41/8
f 29/43/9 30/64/9 32/44/9
f 31/45/10 32/44/10 27/39/10
f 32/47/11 30/65/11 28/40/11
f 25/39/12 29/47/12 31/48/12
f 33/49/7 34/57/7 35/50/7
f 37/52/8 33/49/8 36/51/8
f 37/54/9 38/66/9 40/55/9
f 39/56/10 40/55/10 35/50/10
f 40/58/11 38/67/11 36/51/11
f 33/50/12 37/58/12 39/59/12
o ear_right
v 0.213700 0.983396 -0.530532
v 0.111803 0.986955 -0.578076
v 0.115729 1.099386 -0.578076
v 0.217627 1.095828 -0.530532
v 0.192582 0.984134 -0.485216
v 0.196509 1.096565 -0.485216
v 0.090685 0.987692 -0.532761
v 0.094611 1.100124 -0.532761
v 0.191276 1.089557 -0.542354
v 0.145988 1.091138 -0.563485
v 0.147733 1.141108 -0.563485
v 0.193021 1.139526 -0.542354
v 0.170158 1.090294 -0.497039
v 0.171903 1.140264 -0.497039
v 0.124870 1.091876 -0.518170
v 0.126615 1.141845 -0.518170
v 0.230778 0.964039 -0.516028
v 0.094914 0.968783 -0.579421
v 0.100149 1.118692 -0.579421
v 0.236013 1.113947 -0.516028
v 0.193821 0.965329 -0.436726
v 0.199056 1.115238 -0.436726
v 0.057958 0.970074 -0.500119
v 0.063193 1.119982 -0.500119
v 0.206155 1.071851 -0.529063
v 0.128033 1.074579 -0.565514
v 0.131043 1.160776 -0.565514
v 0.209165 1.158048 -0.529063
v 0.169726 1.073123 -0.450894
v 0.172736 1.159320 -0.450894
v 0.091605 1.075851 -0.487345
v 0.094615 1.162048 -0.487345
vn 0.4224 -0.0147 -0.9063
vn 0.9058 -0.0316 0.4226
vn -0.4224 0.0147 0.9063
vn -0.9058 0.0316 -0.4226
vn 0.0349 0.9994 -0.0000
vn -0.0349 -0.9994 -0.0000
vt 0.432000 0.906250
vt 0.433000 0.968750
vt 0.433000 0.906250
vt 0.433500 0.968750
vt 0.433500 0.906250
vt 0.434500 0.968750
vt 0.434500 0.906250
vt 0.431500 0.968750
vt 0.432000 0.968750
vt 0.433000 1.000000
vt 0.432000 1.000000
vt 0.434000 0.968750
vt 0.095500 0.937500
vt 0.096000 0.968750
vt 0.096000 0.937500
vt 0.096500 0.937500
vt 0.096500 0.968750
vt 0.097000 0.968750
vt 0.097000 0.937500
vt 0.095000 0.937500
vt 0.095500 0.968750
vt 0.095500 1.000000
vt 0.096000 1.000000
vt 0.424500 0.812500
vt 0.423500 0.875000
vt 0.424500 0.875000
vt 0.425000 0.875000
vt 0.425000 0.812500
vt 0.426000 0.812500
vt 0.426000 0.875000
vt 0.423000 0.812500
vt 0.423500 0.812500
vt 0.424500 0.906250
vt 0.423500 0.906250
vt 0.425500 0.875000
vt 0.423500 0.937500
vt 0.424000 0.968750
vt 0.424000 0.937500
vt 0.424500 0.937500
vt 0.424500 0.968750
vt 0.425000 0.968750
vt 0.425000 0.937500
vt 0.423000 0.968750
vt 0.423500 0.968750
vt 0.423500 1.000000
vt 0.424000 1.000000
vt 0.431500 0.906250
vt 0.434000 1.000000
vt 0.095000 0.968750
vt 0.096500 1.000000
vt 0.423000 0.875000
vt 0.425500 0.906250
vt 0.423000 0.937500
vt 0.424500 1.000000
s 0
usemtl m_7615ebdc-3ef7-44c0-8929-a5b31ab15ed8
f 42/68/13 44/69/13 41/70/13
f 41/70/14 46/71/14 45/72/14
f 45/72/15 48/73/15 47/74/15
f 42/68/16 48/75/16 43/76/16
f 46/77/17 43/76/17 48/78/17
f 41/79/18 47/77/18 42/69/18
f 50/80/13 52/81/13 49/82/13
f 53/83/14 52/81/14 54/84/14
f 53/83/15 56/85/15 55/86/15
f 55/87/16 51/88/16 50/80/16
f 56/89/17 52/81/17 51/88/17
f 49/84/18 55/90/18 50/81/18
f 57/91/13 59/92/13 60/93/13
f 57/91/14 62/94/14 61/95/14
f 63/96/15 62/94/15 64/97/15
f 63/98/16 59/92/16 58/99/16
f 62/100/17 59/92/17 64/101/17
f 57/102/18 63/100/18 58/93/18
f 66/103/13 68/104/13 65/105/13
f 69/106/14 68/104/14 70/107/14
f 69/106/15 72/108/15 71/109/15
f 66/103/16 72/110/16 67/111/16
f 72/112/17 68/104/17 67/111/17
f 65/107/18 71/113/18 66/104/18
f 42/68/13 43/76/13 44/69/13
f 41/70/14 44/69/14 46/71/14
f 45/72/15 46/71/15 48/73/15
f 42/68/16 47/114/16 48/75/16
f 46/77/17 44/69/17 43/76/17
f 41/79/18 45/115/18 47/77/18
f 50/80/13 51/88/13 52/81/13
f 53/83/14 49/82/14 52/81/14
f 53/83/15 54/84/15 56/85/15
f 55/87/16 56/116/16 51/88/16
f 56/89/17 54/90/17 52/81/17
f 49/84/18 53/117/18 55/90/18
f 57/91/13 58/99/13 59/92/13
f 57/91/14 60/93/14 62/94/14
f 63/96/15 61/95/15 62/94/15
f 63/98/16 64/118/16 59/92/16
f 62/100/17 60/93/17 59/92/17
f 57/102/18 61/119/18 63/100/18
f 66/103/13 67/111/13 68/104/13
f 69/106/14 65/105/14 68/104/14
f 69/106/15 70/107/15 72/108/15
f 66/103/16 71/120/16 72/110/16
f 72/112/17 70/113/17 68/104/17
f 65/107/18 69/121/18 71/113/18
o head
v 0.187500 0.628125 -0.687500
v -0.187500 0.628125 -0.687500
v -0.187500 1.003125 -0.687500
v 0.187500 1.003125 -0.687500
v 0.187500 0.628125 -0.312500
v 0.187500 1.003125 -0.312500
v -0.187500 0.628125 -0.312500
v -0.187500 1.003125 -0.312500
v -0.184375 0.634381 -0.628125
v -0.246875 0.634381 -0.628125
v -0.246875 0.946881 -0.628125
v -0.184375 0.946881 -0.628125
v -0.184375 0.634381 -0.378125
v -0.184375 0.946881 -0.378125
v -0.246875 0.634381 -0.378125
v -0.246875 0.946881 -0.378125
v -0.171250 0.690000 -0.562563
v -0.233750 0.690000 -0.562563
v -0.233750 1.002500 -0.562563
v -0.171250 1.002500 -0.562563
v -0.171250 0.690000 -0.312563
v -0.171250 1.002500 -0.312563
v -0.233750 0.690000 -0.312563
v -0.233750 1.002500 -0.312563
v -0.231250 0.696875 -0.590625
v -0.293750 0.696875 -0.590625
v -0.293750 0.821875 -0.590625
v -0.231250 0.821875 -0.590625
v -0.231250 0.696875 -0.403125
v -0.231250 0.821875 -0.403125
v -0.293750 0.696875 -0.403125
v -0.293750 0.821875 -0.403125
v 0.293750 0.696875 -0.590625
v 0.231250 0.696875 -0.590625
v 0.231250 0.821875 -0.590625
v 0.293750 0.821875 -0.590625
v 0.293750 0.696875 -0.403125
v 0.293750 0.821875 -0.403125
v 0.231250 0.696875 -0.403125
v 0.231250 0.821875 -0.403125
v 0.246875 0.634381 -0.628125
v 0.184375 0.634381 -0.628125
v 0.184375 0.946881 -0.628125
v 0.246875 0.946881 -0.628125
v 0.246875 0.634381 -0.378125
v 0.246875 0.946881 -0.378125
v 0.184375 0.634381 -0.378125
v 0.184375 0.946881 -0.378125
v 0.233750 0.690000 -0.562563
v 0.171250 0.690000 -0.562563
v 0.171250 1.002500 -0.562563
v 0.233750 1.002500 -0.562563
v 0.233750 0.690000 -0.312563
v 0.233750 1.002500 -0.312563
v 0.171250 0.690000 -0.312563
v 0.171250 1.002500 -0.312563
v 0.034375 0.676900 -0.639302
v -0.034375 0.676900 -0.639302
v -0.034375 0.727127 -0.760561
v 0.034375 0.727127 -0.760561
v 0.034375 0.855902 -0.565157
v 0.034375 0.906129 -0.686416
v -0.034375 0.855902 -0.565157
v -0.034375 0.906129 -0.686416
v 0.040625 0.717583 -0.910671
v -0.040625 0.717583 -0.910671
v -0.040625 0.798756 -0.914215
v 0.040625 0.798756 -0.914215
v 0.040625 0.721127 -0.829498
v 0.040625 0.802300 -0.833042
v -0.040625 0.721127 -0.829498
v -0.040625 0.802300 -0.833042
v 0.112623 0.828053 -0.691417
v 0.048956 0.826386 -0.694195
v 0.047292 0.890114 -0.694316
v 0.110960 0.891782 -0.691538
v 0.109843 0.828102 -0.627727
v 0.108180 0.891830 -0.627849
v 0.046175 0.826435 -0.630505
v 0.044512 0.890163 -0.630627
v 0.153072 0.829740 -0.689027
v 0.090653 0.828105 -0.691750
v 0.089022 0.890584 -0.691869
v 0.151441 0.892218 -0.689145
v 0.150347 0.829787 -0.626586
v 0.148716 0.892266 -0.626705
v 0.087927 0.828153 -0.629310
v 0.086296 0.890631 -0.629429
v -0.090509 0.828023 -0.691750
v -0.152927 0.829712 -0.689026
v -0.151242 0.892189 -0.689145
v -0.088824 0.890500 -0.691869
v -0.087784 0.828068 -0.629309
v -0.086098 0.890545 -0.629428
v -0.150201 0.829757 -0.626586
v -0.148516 0.892234 -0.626705
v -0.048813 0.826267 -0.694195
v -0.112479 0.827990 -0.691416
v -0.110760 0.891717 -0.691538
v -0.047094 0.889994 -0.694316
v -0.046033 0.826313 -0.630505
v -0.044313 0.890040 -0.630626
v -0.109699 0.828036 -0.627727
v -0.107980 0.891763 -0.627848
v 0.087500 0.682772 -0.893862
v -0.087500 0.682772 -0.893862
v -0.087500 0.794925 -0.902689
v 0.087500 0.794925 -0.902689
v 0.087500 0.706310 -0.594787
v 0.087500 0.818463 -0.603614
v -0.087500 0.706310 -0.594787
v -0.087500 0.818463 -0.603614
v 0.156250 0.993276 -0.653322
v -0.156250 0.993276 -0.653322
v -0.156250 0.993276 -0.653322
v 0.156250 0.993276 -0.653322
v 0.156250 1.074440 -0.287211
v 0.156250 1.074440 -0.287211
v -0.156250 1.074440 -0.287211
v -0.156250 1.074440 -0.287211
vn -0.0000 -0.0000 -1.0000
vn 1.0000 -0.0000 -0.0000
vn -0.0000 -0.0000 1.0000
vn -1.0000 -0.0000 -0.0000
vn -0.0000 1.0000 -0.0000
vn -0.0000 -1.0000 -0.0000
vn -0.0000 -0.9239 -0.3827
vn -0.0000 0.9239 0.3827
vn -0.0000 0.3827 -0.9239
vn -0.0000 -0.3827 0.9239
vn -0.0000 -0.0436 -0.9990
vn -0.0000 0.0436 0.9990
vn -0.0000 0.9990 -0.0436
vn -0.0000 -0.9990 0.0436
vn 0.0436 -0.0008 -0.9990
vn 0.9987 0.0262 0.0436
vn -0.0436 0.0008 0.9990
vn -0.9987 -0.0262 -0.0436
vn -0.0261 0.9997 -0.0019
vn 0.0261 -0.9997 0.0019
vn -0.0436 -0.0007 -0.9990
vn 0.9987 -0.0270 -0.0436
vn 0.0436 0.0007 0.9990
vn -0.9987 0.0270 0.0436
vn 0.0270 0.9996 -0.0019
vn -0.0270 -0.9996 0.0019
vn -0.0000 -0.0785 -0.9969
vn -0.0000 0.0785 0.9969
vn -0.0000 0.9969 -0.0785
vn -0.0000 -0.9969 0.0785
vn -0.0000 0.9763 -0.2164
vn -0.0000 -0.9763 0.2164
vt 0.420000 0.625000
vt 0.417000 0.812500
vt 0.417000 0.625000
vt 0.414000 0.812500
vt 0.414000 0.625000
vt 0.426000 0.625000
vt 0.423000 0.812500
vt 0.423000 0.625000
vt 0.420000 0.812500
vt 0.417000 1.000000
vt 0.420000 1.000000
vt 0.423000 1.000000
vt 0.419500 0.000000
vt 0.419000 0.156250
vt 0.419000 0.000000
vt 0.417000 0.156250
vt 0.417000 0.000000
vt 0.422000 0.000000
vt 0.421500 0.156250
vt 0.421500 0.000000
vt 0.419500 0.156250
vt 0.419000 0.281250
vt 0.419500 0.281250
vt 0.420000 0.281250
vt 0.420000 0.156250
vt 0.406000 0.531250
vt 0.405500 0.593750
vt 0.405500 0.531250
vt 0.404000 0.593750
vt 0.404000 0.531250
vt 0.408000 0.531250
vt 0.407500 0.593750
vt 0.407500 0.531250
vt 0.406000 0.593750
vt 0.405500 0.687500
vt 0.406000 0.687500
vt 0.406500 0.687500
vt 0.406500 0.593750
vt 0.439000 0.750000
vt 0.438500 0.812500
vt 0.438500 0.750000
vt 0.437000 0.812500
vt 0.437000 0.750000
vt 0.441000 0.750000
vt 0.440500 0.812500
vt 0.440500 0.750000
vt 0.439000 0.812500
vt 0.438500 0.906250
vt 0.439000 0.906250
vt 0.439500 0.906250
vt 0.439500 0.812500
vt 0.502500 0.125000
vt 0.501500 0.187500
vt 0.501500 0.125000
vt 0.500500 0.187500
vt 0.500500 0.125000
vt 0.504500 0.125000
vt 0.503500 0.187500
vt 0.503500 0.125000
vt 0.502500 0.187500
vt 0.501500 0.250000
vt 0.502500 0.250000
vt 0.503500 0.250000
vt 0.416000 0.875000
vt 0.415500 0.906250
vt 0.416000 0.906250
vt 0.416500 0.906250
vt 0.416500 0.875000
vt 0.417000 0.906250
vt 0.417000 0.875000
vt 0.415000 0.875000
vt 0.415500 0.875000
vt 0.416000 0.937500
vt 0.415500 0.937500
vt 0.427500 0.843750
vt 0.427000 0.875000
vt 0.427500 0.875000
vt 0.428000 0.843750
vt 0.428000 0.875000
vt 0.428500 0.875000
vt 0.428500 0.843750
vt 0.426500 0.843750
vt 0.427000 0.843750
vt 0.427000 0.906250
vt 0.427500 0.906250
vt 0.426500 0.875000
vt 0.428000 0.906250
vt 0.415000 0.906250
vt 0.416500 0.937500
vt 0.430000 0.781250
vt 0.428500 0.781250
vt 0.426000 0.843750
vt 0.426000 0.781250
vt 0.434000 0.781250
vt 0.432500 0.843750
vt 0.432500 0.781250
vt 0.430000 0.843750
vt 0.428500 1.000000
vt 0.430000 1.000000
vt 0.431500 1.000000
vt 0.431500 0.843750
vt 0.416000 0.343750
vt 0.418500 0.343750
vt 0.413000 0.343750
vt 0.421500 0.343750
vt 0.424000 0.343750
vt 0.416000 0.531250
vt 0.418500 0.531250
vt 0.421000 0.531250
vt 0.421000 0.343750
vt 0.426000 0.812500
vt 0.422000 0.156250
vt 0.408000 0.593750
vt 0.441000 0.812500
vt 0.504500 0.187500
vt 0.434000 0.843750
s 0
usemtl m_7615ebdc-3ef7-44c0-8929-a5b31ab15ed8
f 74/122/19 76/123/19 73/124/19
f 73/124/20 78/125/20 77/126/20
f 77/127/21 80/128/21 79/129/21
f 79/129/22 75/130/22 74/122/22
f 78/131/23 75/130/23 80/132/23
f 73/130/24 79/133/24 74/128/24
f 82/134/19 84/135/19 81/136/19
f 81/136/20 86/137/20 85/138/20
f 85/139/21 88/140/21 87/141/21
f 87/141/22 83/142/22 82/134/22
f 86/143/23 83/142/23 88/144/23
f 81/142/24 87/145/24 82/146/24
f 90/134/19 92/135/19 89/136/19
f 89/136/20 94/137/20 93/138/20
f 93/139/21 96/140/21 95/141/21
f 95/141/22 91/142/22 90/134/22
f 94/143/23 91/142/23 96/144/23
f 89/142/24 95/145/24 90/146/24
f 98/147/19 100/148/19 97/149/19
f 97/149/20 102/150/20 101/151/20
f 101/152/21 104/153/21 103/154/21
f 103/154/22 99/155/22 98/147/22
f 102/156/23 99/155/23 104/157/23
f 97/155/24 103/158/24 98/159/24
f 106/147/19 108/148/19 105/149/19
f 105/149/20 110/150/20 109/151/20
f 109/152/21 112/153/21 111/154/21
f 111/154/22 107/155/22 106/147/22
f 110/156/23 107/155/23 112/157/23
f 105/155/24 111/158/24 106/159/24
f 114/134/19 116/135/19 113/136/19
f 113/136/20 118/137/20 117/138/20
f 117/139/21 120/140/21 119/141/21
f 119/141/22 115/142/22 114/134/22
f 118/143/23 115/142/23 120/144/23
f 113/142/24 119/145/24 114/146/24
f 122/134/19 124/135/19 121/136/19
f 121/136/20 126/137/20 125/138/20
f 125/139/21 128/140/21 127/141/21
f 127/141/22 123/142/22 122/134/22
f 126/143/23 123/142/23 128/144/23
f 121/142/24 127/145/24 122/146/24
f 130/160/25 132/161/25 129/162/25
f 129/162/20 134/163/20 133/164/20
f 133/165/26 136/166/26 135/167/26
f 130/160/22 136/166/22 131/168/22
f 134/169/27 131/168/27 136/170/27
f 129/168/28 135/171/28 130/172/28
f 138/173/29 140/174/29 137/175/29
f 137/175/20 142/176/20 141/177/20
f 141/178/30 144/179/30 143/180/30
f 143/180/22 139/181/22 138/173/22
f 142/182/31 139/181/31 144/183/31
f 137/181/32 143/184/32 138/179/32
f 145/185/33 147/186/33 148/187/33
f 145/185/34 150/188/34 149/189/34
f 149/189/35 152/190/35 151/191/35
f 151/192/36 147/186/36 146/193/36
f 150/194/37 147/186/37 152/195/37
f 145/188/38 151/194/38 146/187/38
f 153/196/33 155/197/33 156/198/33
f 157/199/34 156/198/34 158/200/34
f 157/199/35 160/201/35 159/202/35
f 159/203/36 155/197/36 154/204/36
f 160/205/37 156/198/37 155/197/37
f 153/200/38 159/206/38 154/198/38
f 162/196/39 164/197/39 161/204/39
f 165/203/40 164/197/40 166/207/40
f 167/199/41 166/201/41 168/200/41
f 167/199/42 163/198/42 162/196/42
f 166/205/43 163/198/43 168/206/43
f 162/200/44 165/206/44 167/208/44
f 170/185/39 172/186/39 169/193/39
f 169/193/40 174/209/40 173/192/40
f 173/191/41 176/188/41 175/189/41
f 170/185/42 176/188/42 171/187/42
f 174/195/43 171/187/43 176/194/43
f 169/187/44 175/210/44 170/188/44
f 178/211/45 180/202/45 177/212/45
f 177/212/20 182/213/20 181/214/20
f 181/215/46 184/216/46 183/217/46
f 183/217/22 179/218/22 178/211/22
f 182/219/47 179/218/47 184/220/47
f 177/218/48 183/221/48 178/222/48
f 185/223/21 187/224/21 188/223/21
f 189/225/21 188/223/21 190/225/21
f 191/226/21 190/227/21 192/226/21
f 186/224/21 192/226/21 187/224/21
f 190/228/49 187/224/49 192/229/49
f 185/224/50 191/230/50 186/231/50
f 74/122/19 75/130/19 76/123/19
f 73/124/20 76/123/20 78/125/20
f 77/127/21 78/232/21 80/128/21
f 79/129/22 80/128/22 75/130/22
f 78/131/23 76/123/23 75/130/23
f 73/130/24 77/132/24 79/133/24
f 82/134/19 83/142/19 84/135/19
f 81/136/20 84/135/20 86/137/20
f 85/139/21 86/233/21 88/140/21
f 87/141/22 88/140/22 83/142/22
f 86/143/23 84/135/23 83/142/23
f 81/142/24 85/144/24 87/145/24
f 90/134/19 91/142/19 92/135/19
f 89/136/20 92/135/20 94/137/20
f 93/139/21 94/233/21 96/140/21
f 95/141/22 96/140/22 91/142/22
f 94/143/23 92/135/23 91/142/23
f 89/142/24 93/144/24 95/145/24
f 98/147/19 99/155/19 100/148/19
f 97/149/20 100/148/20 102/150/20
f 101/152/21 102/234/21 104/153/21
f 103/154/22 104/153/22 99/155/22
f 102/156/23 100/148/23 99/155/23
f 97/155/24 101/157/24 103/158/24
f 106/147/19 107/155/19 108/148/19
f 105/149/20 108/148/20 110/150/20
f 109/152/21 110/234/21 112/153/21
f 111/154/22 112/153/22 107/155/22
f 110/156/23 108/148/23 107/155/23
f 105/155/24 109/157/24 111/158/24
f 114/134/19 115/142/19 116/135/19
f 113/136/20 116/135/20 118/137/20
f 117/139/21 118/233/21 120/140/21
f 119/141/22 120/140/22 115/142/22
f 118/143/23 116/135/23 115/142/23
f 113/142/24 117/144/24 119/145/24
f 122/134/19 123/142/19 124/135/19
f 121/136/20 124/135/20 126/137/20
f 125/139/21 126/233/21 128/140/21
f 127/141/22 128/140/22 123/142/22
f 126/143/23 124/135/23 123/142/23
f 121/142/24 125/144/24 127/145/24
f 130/160/25 131/168/25 132/161/25
f 129/162/20 132/161/20 134/163/20
f 133/165/26 134/235/26 136/166/26
f 130/160/22 135/167/22 136/166/22
f 134/169/27 132/161/27 131/168/27
f 129/168/28 133/170/28 135/171/28
f 138/173/29 139/181/29 140/174/29
f 137/175/20 140/174/20 142/176/20
f 141/178/30 142/236/30 144/179/30
f 143/180/22 144/179/22 139/181/22
f 142/182/31 140/174/31 139/181/31
f 137/181/32 141/183/32 143/184/32
f 145/185/33 146/193/33 147/186/33
f 145/185/34 148/187/34 150/188/34
f 149/189/35 150/188/35 152/190/35
f 151/192/36 152/209/36 147/186/36
f 150/194/37 148/187/37 147/186/37
f 145/188/38 149/210/38 151/194/38
f 153/196/33 154/204/33 155/197/33
f 157/199/34 153/196/34 156/198/34
f 157/199/35 158/200/35 160/201/35
f 159/203/36 160/207/36 155/197/36
f 160/205/37 158/206/37 156/198/37
f 153/200/38 157/208/38 159/206/38
f 162/196/39 163/198/39 164/197/39
f 165/203/40 161/204/40 164/197/40
f 167/199/41 165/202/41 166/201/41
f 167/199/42 168/200/42 163/198/42
f 166/205/43 164/197/43 163/198/43
f 162/200/44 161/198/44 165/206/44
f 170/185/39 171/187/39 172/186/39
f 169/193/40 172/186/40 174/209/40
f 173/191/41 174/190/41 176/188/41
f 170/185/42 175/189/42 176/188/42
f 174/195/43 172/186/43 171/187/43
f 169/187/44 173/194/44 175/210/44
f 178/211/45 179/218/45 180/202/45
f 177/212/20 180/202/20 182/213/20
f 181/215/46 182/237/46 184/216/46
f 183/217/22 184/216/22 179/218/22
f 182/219/47 180/202/47 179/218/47
f 177/218/48 181/220/48 183/221/48
f 185/223/21 186/224/21 187/224/21
f 189/225/21 185/223/21 188/223/21
f 191/226/21 189/227/21 190/227/21
f 186/224/21 191/226/21 192/226/21
f 190/228/49 188/223/49 187/224/49
f 185/224/50 189/229/50 191/230/50
o jaw
v 0.084375 0.654575 -0.887642
v -0.084375 0.654575 -0.887642
v -0.084375 0.698190 -0.891075
v 0.084375 0.698190 -0.891075
v 0.084375 0.677622 -0.594797
v 0.084375 0.721237 -0.598230
v -0.084375 0.677622 -0.594797
v -0.084375 0.721237 -0.598230
v 0.078125 0.626966 -0.878816
v -0.078125 0.626966 -0.878816
v -0.078125 0.658119 -0.881268
v 0.078125 0.658119 -0.881268
v 0.078125 0.649032 -0.598433
v 0.078125 0.680186 -0.600885
v -0.078125 0.649032 -0.598433
v -0.078125 0.680186 -0.600885
vn -0.0000 -0.0785 -0.9969
vn 1.0000 -0.0000 -0.0000
vn -0.0000 0.0785 0.9969
vn -1.0000 -0.0000 -0.0000
vn -0.0000 0.9969 -0.0785
vn -0.0000 -0.9969 0.0785
vt 0.441000 0.000000
vt 0.439500 0.031250
vt 0.439500 0.000000
vt 0.437000 0.000000
vt 0.437000 0.031250
vt 0.445000 0.000000
vt 0.443500 0.031250
vt 0.443500 0.000000
vt 0.441000 0.031250
vt 0.439500 0.187500
vt 0.441000 0.187500
vt 0.442500 0.187500
vt 0.442500 0.031250
vt 0.435500 0.718750
vt 0.434000 0.750000
vt 0.434000 0.718750
vt 0.431500 0.718750
vt 0.431500 0.750000
vt 0.439500 0.718750
vt 0.438000 0.750000
vt 0.438000 0.718750
vt 0.435500 0.750000
vt 0.434000 0.906250
vt 0.435500 0.906250
vt 0.437000 0.906250
vt 0.437000 0.750000
vt 0.445000 0.031250
vt 0.439500 0.750000
s 0
usemtl m_7615ebdc-3ef7-44c0-8929-a5b31ab15ed8
f 194/238/51 196/239/51 193/240/51
f 197/241/52 196/239/52 198/242/52
f 197/243/53 200/244/53 199/245/53
f 199/245/54 195/246/54 194/238/54
f 198/247/55 195/246/55 200/248/55
f 193/246/56 199/249/56 194/250/56
f 202/251/51 204/252/51 201/253/51
f 205/254/52 204/252/52 206/255/52
f 205/256/53 208/257/53 207/258/53
f 207/258/54 203/259/54 202/251/54
f 206/260/55 203/259/55 208/261/55
f 201/259/56 207/262/56 202/263/56
f 194/238/51 195/246/51 196/239/51
f 197/241/52 193/240/52 196/239/52
f 197/243/53 198/264/53 200/244/53
f 199/245/54 200/244/54 195/246/54
f 198/247/55 196/239/55 195/246/55
f 193/246/56 197/248/56 199/249/56
f 202/251/51 203/259/51 204/252/51
f 205/254/52 201/253/52 204/252/52
f 205/256/53 206/265/53 208/257/53
f 207/258/54 208/257/54 203/259/54
f 206/260/55 204/252/55 203/259/55
f 201/259/56 205/261/56 207/262/56
o leg_bl
v -0.025000 0.000000 0.418750
v -0.162500 0.000000 0.418750
v -0.162500 0.512500 0.418750
v -0.025000 0.512500 0.418750
v -0.025000 0.000000 0.556250
v -0.025000 0.512500 0.556250
v -0.162500 0.000000 0.556250
v -0.162500 0.512500 0.556250
v -0.025000 0.259232 0.284232
v -0.162500 0.259232 0.284232
v -0.162500 0.521732 0.284232
v -0.025000 0.521732 0.284232
v -0.025000 0.259232 0.421732
v -0.025000 0.521732 0.421732
v -0.162500 0.259232 0.421732
v -0.162500 0.521732 0.421732
vn -0.0000 -0.0000 -1.0000
vn 1.0000 -0.0000 -0.0000
vn -0.0000 -0.0000 1.0000
vn -1.0000 -0.0000 -0.0000
vn -0.0000 1.0000 -0.0000
vn -0.0000 -1.0000 -0.0000
vt 0.428000 0.406250
vt 0.427000 0.656250
vt 0.427000 0.406250
vt 0.426000 0.656250
vt 0.426000 0.406250
vt 0.430000 0.406250
vt 0.429000 0.656250
vt 0.429000 0.406250
vt 0.428000 0.656250
vt 0.427000 0.718750
vt 0.428000 0.718750
vt 0.429000 0.718750
vt 0.434000 0.500000
vt 0.433000 0.625000
vt 0.433000 0.500000
vt 0.432000 0.625000
vt 0.432000 0.500000
vt 0.436000 0.500000
vt 0.435000 0.625000
vt 0.435000 0.500000
vt 0.434000 0.625000
vt 0.433000 0.687500
vt 0.434000 0.687500
vt 0.435000 0.687500
vt 0.430000 0.656250
vt 0.436000 0.625000
s 0
usemtl m_7615ebdc-3ef7-44c0-8929-a5b31ab15ed8
f 210/266/57 212/267/57 209/268/57
f 209/268/58 214/269/58 213/270/58
f 213/271/59 216/272/59 215/273/59
f 215/273/60 211/274/60 210/266/60
f 214/275/61 211/274/61 216/276/61
f 209/274/62 215/277/62 210/272/62
f 218/278/57 220/279/57 217/280/57
f 217/280/58 222/281/58 221/282/58
f 221/283/59 224/284/59 223/285/59
f 223/285/60 219/286/60 218/278/60
f 222/287/61 219/286/61 224/288/61
f 217/286/62 223/289/62 218/284/62
f 210/266/57 211/274/57 212/267/57
f 209/268/58 212/267/58 214/269/58
f 213/271/59 214/290/59 216/272/59
f 215/273/60 216/272/60 211/274/60
f 214/275/61 212/267/61 211/274/61
f 209/274/62 213/276/62 215/277/62
f 218/278/57 219/286/57 220/279/57
f 217/280/58 220/279/58 222/281/58
f 221/283/59 222/291/59 224/284/59
f 223/285/60 224/284/60 219/286/60
f 222/287/61 220/279/61 219/286/61
f 217/286/62 221/288/62 223/289/62
o leg_br
v 0.162500 0.000000 0.418750
v 0.025000 0.000000 0.418750
v 0.025000 0.512500 0.418750
v 0.162500 0.512500 0.418750
v 0.162500 0.000000 0.556250
v 0.162500 0.512500 0.556250
v 0.025000 0.000000 0.556250
v 0.025000 0.512500 0.556250
v 0.162500 0.259232 0.284232
v 0.025000 0.259232 0.284232
v 0.025000 0.521732 0.284232
v 0.162500 0.521732 0.284232
v 0.162500 0.259232 0.421732
v 0.162500 0.521732 0.421732
v 0.025000 0.259232 0.421732
v 0.025000 0.521732 0.421732
vn -0.0000 -0.0000 -1.0000
vn 1.0000 -0.0000 -0.0000
vn -0.0000 -0.0000 1.0000
vn -1.0000 -0.0000 -0.0000
vn -0.0000 1.0000 -0.0000
vn -0.0000 -1.0000 -0.0000
vt 0.428000 0.406250
vt 0.427000 0.656250
vt 0.427000 0.406250
vt 0.426000 0.656250
vt 0.426000 0.406250
vt 0.430000 0.406250
vt 0.429000 0.656250
vt 0.429000 0.406250
vt 0.428000 0.656250
vt 0.427000 0.718750
vt 0.428000 0.718750
vt 0.429000 0.718750
vt 0.434000 0.500000
vt 0.433000 0.625000
vt 0.433000 0.500000
vt 0.432000 0.625000
vt 0.432000 0.500000
vt 0.436000 0.500000
vt 0.435000 0.625000
vt 0.435000 0.500000
vt 0.434000 0.625000
vt 0.433000 0.687500
vt 0.434000 0.687500
vt 0.435000 0.687500
vt 0.430000 0.656250
vt 0.436000 0.625000
s 0
usemtl m_7615ebdc-3ef7-44c0-8929-a5b31ab15ed8
f 226/292/63 228/293/63 225/294/63
f 225/294/64 230/295/64 229/296/64
f 229/297/65 232/298/65 231/299/65
f 231/299/66 227/300/66 226/292/66
f 230/301/67 227/300/67 232/302/67
f 225/300/68 231/303/68 226/298/68
f 234/304/63 236/305/63 233/306/63
f 233/306/64 238/307/64 237/308/64
f 237/309/65 240/310/65 239/311/65
f 239/311/66 235/312/66 234/304/66
f 238/313/67 235/312/67 240/314/67
f 233/312/68 239/315/68 234/310/68
f 226/292/63 227/300/63 228/293/63
f 225/294/64 228/293/64 230/295/64
f 229/297/65 230/316/65 232/298/65
f 231/299/66 232/298/66 227/300/66
f 230/301/67 228/293/67 227/300/67
f 225/300/68 229/302/68 231/303/68
f 234/304/63 235/312/63 236/305/63
f 233/306/64 236/305/64 238/307/64
f 237/309/65 238/317/65 240/310/65
f 239/311/66 240/310/66 235/312/66
f 238/313/67 236/305/67 235/312/67
f 233/312/68 237/314/68 239/315/68
o leg_fl
v -0.025000 -0.000000 -0.318750
v -0.162500 -0.000000 -0.318750
v -0.162500 0.512500 -0.318750
v -0.025000 0.512500 -0.318750
v -0.025000 -0.000000 -0.181250
v -0.025000 0.512500 -0.181250
v -0.162500 -0.000000 -0.181250
v -0.162500 0.512500 -0.181250
vn -0.0000 -0.0000 -1.0000
vn 1.0000 -0.0000 -0.0000
vn -0.0000 -0.0000 1.0000
vn -1.0000 -0.0000 -0.0000
vn -0.0000 1.0000 -0.0000
vn -0.0000 -1.0000 -0.0000
vt 0.428000 0.406250
vt 0.427000 0.656250
vt 0.427000 0.406250
vt 0.426000 0.656250
vt 0.426000 0.406250
vt 0.430000 0.406250
vt 0.429000 0.656250
vt 0.429000 0.406250
vt 0.428000 0.656250
vt 0.427000 0.718750
vt 0.428000 0.718750
vt 0.429000 0.718750
vt 0.430000 0.656250
s 0
usemtl m_7615ebdc-3ef7-44c0-8929-a5b31ab15ed8
f 242/318/69 244/319/69 241/320/69
f 241/320/70 246/321/70 245/322/70
f 245/323/71 248/324/71 247/325/71
f 247/325/72 243/326/72 242/318/72
f 246/327/73 243/326/73 248/328/73
f 241/326/74 247/329/74 242/324/74
f 242/318/69 243/326/69 244/319/69
f 241/320/70 244/319/70 246/321/70
f 245/323/71 246/330/71 248/324/71
f 247/325/72 248/324/72 243/326/72
f 246/327/73 244/319/73 243/326/73
f 241/326/74 245/328/74 247/329/74
o leg_fr
v 0.162500 -0.000000 -0.318750
v 0.025000 -0.000000 -0.318750
v 0.025000 0.512500 -0.318750
v 0.162500 0.512500 -0.318750
v 0.162500 -0.000000 -0.181250
v 0.162500 0.512500 -0.181250
v 0.025000 -0.000000 -0.181250
v 0.025000 0.512500 -0.181250
vn -0.0000 -0.0000 -1.0000
vn 1.0000 -0.0000 -0.0000
vn -0.0000 -0.0000 1.0000
vn -1.0000 -0.0000 -0.0000
vn -0.0000 1.0000 -0.0000
vn -0.0000 -1.0000 -0.0000
vt 0.428000 0.406250
vt 0.427000 0.656250
vt 0.427000 0.406250
vt 0.426000 0.656250
vt 0.426000 0.406250
vt 0.430000 0.406250
vt 0.429000 0.656250
vt 0.429000 0.406250
vt 0.428000 0.656250
vt 0.427000 0.718750
vt 0.428000 0.718750
vt 0.429000 0.718750
vt 0.430000 0.656250
s 0
usemtl m_7615ebdc-3ef7-44c0-8929-a5b31ab15ed8
f 250/331/75 252/332/75 249/333/75
f 249/333/76 254/334/76 253/335/76
f 253/336/77 256/337/77 255/338/77
f 255/338/78 251/339/78 250/331/78
f 254/340/79 251/339/79 256/341/79
f 249/339/80 255/342/80 250/337/80
f 250/331/75 251/339/75 252/332/75
f 249/333/76 252/332/76 254/334/76
f 253/336/77 254/343/77 256/337/77
f 255/338/78 256/337/78 251/339/78
f 254/340/79 252/332/79 251/339/79
f 249/339/80 253/341/80 255/342/80
o mane
v 0.275000 0.437500 0.025000
v -0.275000 0.437500 0.025000
v -0.275000 0.437500 -0.400000
v 0.275000 0.437500 -0.400000
v 0.275000 0.925000 0.025000
v 0.275000 0.925000 -0.400000
v -0.275000 0.925000 0.025000
v -0.275000 0.925000 -0.400000
vn -0.0000 -1.0000 -0.0000
vn 1.0000 -0.0000 -0.0000
vn -0.0000 1.0000 -0.0000
vn -1.0000 -0.0000 -0.0000
vn -0.0000 -0.0000 -1.0000
vn -0.0000 -0.0000 1.0000
vt 0.429500 0.000000
vt 0.425500 0.187500
vt 0.425500 0.000000
vt 0.422000 0.187500
vt 0.422000 0.000000
vt 0.437000 0.000000
vt 0.433000 0.187500
vt 0.433000 0.000000
vt 0.429500 0.187500
vt 0.425500 0.406250
vt 0.429500 0.406250
vt 0.433500 0.406250
vt 0.433500 0.187500
vt 0.437000 0.187500
s 0
usemtl m_7615ebdc-3ef7-44c0-8929-a5b31ab15ed8
f 258/344/81 260/345/81 257/346/81
f 257/346/82 262/347/82 261/348/82
f 261/349/83 264/350/83 263/351/83
f 263/351/84 259/352/84 258/344/84
f 262/353/85 259/352/85 264/354/85
f 257/352/86 263/355/86 258/356/86
f 258/344/81 259/352/81 260/345/81
f 257/346/82 260/345/82 262/347/82
f 261/349/83 262/357/83 264/350/83
f 263/351/84 264/350/84 259/352/84
f 262/353/85 260/345/85 259/352/85
f 257/352/86 261/354/86 263/355/86
o tail
v 0.075000 0.168750 0.550000
v -0.075000 0.168750 0.550000
v -0.075000 0.693750 0.550000
v 0.075000 0.693750 0.550000
v 0.075000 0.168750 0.700000
v 0.075000 0.693750 0.700000
v -0.075000 0.168750 0.700000
v -0.075000 0.693750 0.700000
vn -0.0000 -0.0000 -1.0000
vn 1.0000 -0.0000 -0.0000
vn -0.0000 -0.0000 1.0000
vn -1.0000 -0.0000 -0.0000
vn -0.0000 1.0000 -0.0000
vn -0.0000 -1.0000 -0.0000
vt 0.006500 0.125000
vt 0.005500 0.375000
vt 0.005500 0.125000
vt 0.004500 0.375000
vt 0.004500 0.125000
vt 0.008500 0.125000
vt 0.007500 0.375000
vt 0.007500 0.125000
vt 0.006500 0.375000
vt 0.005500 0.437500
vt 0.006500 0.437500
vt 0.007500 0.437500
vt 0.008500 0.375000
s 0
usemtl m_7615ebdc-3ef7-44c0-8929-a5b31ab15ed8
f 266/358/87 268/359/87 265/360/87
f 265/360/88 270/361/88 269/362/88
f 269/363/89 272/364/89 271/365/89
f 271/365/90 267/366/90 266/358/90
f 270/367/91 267/366/91 272/368/91
f 265/366/92 271/369/92 266/364/92
f 266/358/87 267/366/87 268/359/87
f 265/360/88 268/359/88 270/361/88
f 269/363/89 270/370/89 272/364/89
f 271/365/90 272/364/90 267/366/90
f 270/367/91 268/359/91 267/366/91
f 265/366/92 269/368/92 271/369/92
